M48
; DRILL file {KiCad 5.99.0-unknown-c3175b4~86~ubuntu16.04.1} date Mon 09 Dec 2019 10:27:31 AM PST
; FORMAT={-:-/ absolute / metric / decimal}
; #@! TF.CreationDate,2019-12-09T10:27:31-08:00
; #@! TF.GenerationSoftware,Kicad,Pcbnew,5.99.0-unknown-c3175b4~86~ubuntu16.04.1
; #@! TF.FileFunction,NonPlated,1,2,NPTH
FMAT,2
METRIC
T1C0.500
T2C1.700
T3C2.000
%
G90
G05
T1
X140.25Y-130.25
X140.25Y-131.75
X141.0Y-130.25
X141.0Y-131.75
X141.75Y-130.25
X141.75Y-131.75
X142.5Y-130.25
X142.5Y-131.75
X143.25Y-130.25
X143.25Y-131.75
X144.0Y-130.25
X144.0Y-131.75
X144.75Y-130.25
X144.75Y-131.75
X145.5Y-130.25
X145.5Y-131.75
X154.5Y-130.25
X154.5Y-131.75
X155.25Y-130.25
X155.25Y-131.75
X156.0Y-130.25
X156.0Y-131.75
X156.75Y-130.25
X156.75Y-131.75
X157.5Y-130.25
X157.5Y-131.75
X158.25Y-130.25
X158.25Y-131.75
X159.0Y-130.25
X159.0Y-131.75
X159.75Y-130.25
X159.75Y-131.75
T2
X144.0Y-166.645
X151.0Y-166.645
T3
G00X146.5Y-131.0
M15
G01X153.5Y-131.0
M16
G05
T0
M30
