G04 #@! TF.GenerationSoftware,KiCad,Pcbnew,5.99.0-unknown-c3175b4~86~ubuntu16.04.1*
G04 #@! TF.CreationDate,2019-12-09T10:27:28-08:00*
G04 #@! TF.ProjectId,wogglebug,776f6767-6c65-4627-9567-2e6b69636164,rev?*
G04 #@! TF.SameCoordinates,Original*
G04 #@! TF.FileFunction,Soldermask,Top*
G04 #@! TF.FilePolarity,Negative*
%FSLAX46Y46*%
G04 Gerber Fmt 4.6, Leading zero omitted, Abs format (unit mm)*
G04 Created by KiCad (PCBNEW 5.99.0-unknown-c3175b4~86~ubuntu16.04.1) date 2019-12-09 10:27:28*
%MOMM*%
%LPD*%
G04 APERTURE LIST*
%ADD10C,0.100000*%
G04 APERTURE END LIST*
D10*
G36*
X157551711Y-167199045D02*
G01*
X157652823Y-167199133D01*
X157700034Y-167205390D01*
X157745022Y-167207315D01*
X157847772Y-167224971D01*
X157951839Y-167238764D01*
X157993979Y-167250095D01*
X158034350Y-167257032D01*
X158138002Y-167288820D01*
X158243124Y-167317086D01*
X158279727Y-167332285D01*
X158315024Y-167343110D01*
X158417660Y-167389560D01*
X158521694Y-167432759D01*
X158552533Y-167450599D01*
X158582476Y-167464151D01*
X158681998Y-167525497D01*
X158782783Y-167583802D01*
X158807856Y-167603076D01*
X158832387Y-167618197D01*
X158926685Y-167694422D01*
X159021922Y-167767632D01*
X159041433Y-167787177D01*
X159060702Y-167802753D01*
X159147649Y-167893579D01*
X159235021Y-167981104D01*
X159249372Y-167999840D01*
X159263709Y-168014817D01*
X159341159Y-168119676D01*
X159418434Y-168220564D01*
X159428215Y-168237539D01*
X159438127Y-168250959D01*
X159504011Y-168369087D01*
X159569021Y-168481915D01*
X159574973Y-168496319D01*
X159581130Y-168507359D01*
X159633536Y-168638052D01*
X159684207Y-168760687D01*
X159687192Y-168771864D01*
X159690388Y-168779836D01*
X159727525Y-168922916D01*
X159762021Y-169052108D01*
X159763000Y-169059595D01*
X159764141Y-169063991D01*
X159784429Y-169223467D01*
X159801131Y-169351193D01*
X159800867Y-169652823D01*
X159793626Y-169707455D01*
X159792897Y-169742262D01*
X159775284Y-169845847D01*
X159761236Y-169951839D01*
X159750425Y-169992044D01*
X159743898Y-170030433D01*
X159711677Y-170136153D01*
X159682914Y-170243124D01*
X159668480Y-170277884D01*
X159658308Y-170311260D01*
X159611164Y-170415916D01*
X159567241Y-170521694D01*
X159550406Y-170550795D01*
X159537736Y-170578921D01*
X159475427Y-170680401D01*
X159416198Y-170782783D01*
X159398145Y-170806268D01*
X159384124Y-170829103D01*
X159306678Y-170925255D01*
X159232368Y-171021922D01*
X159214241Y-171040017D01*
X159199971Y-171057734D01*
X159107659Y-171146413D01*
X159018896Y-171235021D01*
X159001751Y-171248153D01*
X158988255Y-171261118D01*
X158881597Y-171340184D01*
X158779436Y-171418434D01*
X158764193Y-171427217D01*
X158752419Y-171435945D01*
X158632107Y-171503323D01*
X158518085Y-171569021D01*
X158505537Y-171574206D01*
X158496278Y-171579391D01*
X158362698Y-171633226D01*
X158239313Y-171684207D01*
X158230079Y-171686673D01*
X158223984Y-171689129D01*
X158076069Y-171727796D01*
X157947892Y-171762021D01*
X157942394Y-171762740D01*
X157939957Y-171763377D01*
X157760636Y-171786508D01*
X157648807Y-171801131D01*
X157536053Y-171801032D01*
X157355224Y-171801190D01*
X157352723Y-171800872D01*
X157347177Y-171800867D01*
X157215561Y-171783423D01*
X157063991Y-171764141D01*
X157057638Y-171762492D01*
X157048161Y-171761236D01*
X156919180Y-171726555D01*
X156779836Y-171690388D01*
X156769992Y-171686441D01*
X156756876Y-171682914D01*
X156635363Y-171632457D01*
X156507359Y-171581130D01*
X156494551Y-171573987D01*
X156478306Y-171567241D01*
X156366895Y-171502788D01*
X156250959Y-171438127D01*
X156235913Y-171427014D01*
X156217217Y-171416198D01*
X156117774Y-171339755D01*
X156014817Y-171263709D01*
X155998382Y-171247976D01*
X155978078Y-171232368D01*
X155891956Y-171146095D01*
X155802753Y-171060702D01*
X155785902Y-171039856D01*
X155764979Y-171018896D01*
X155693063Y-170925004D01*
X155618197Y-170832387D01*
X155602012Y-170806130D01*
X155581566Y-170779436D01*
X155524375Y-170680178D01*
X155464151Y-170582476D01*
X155449766Y-170550690D01*
X155430979Y-170518085D01*
X155388690Y-170415737D01*
X155343110Y-170315024D01*
X155331690Y-170277786D01*
X155315793Y-170239313D01*
X155288210Y-170136011D01*
X155257032Y-170034350D01*
X155249752Y-169991981D01*
X155237979Y-169947892D01*
X155224618Y-169845717D01*
X155207315Y-169745022D01*
X155205304Y-169698017D01*
X155198869Y-169648807D01*
X155198956Y-169549638D01*
X155194766Y-169451707D01*
X155199086Y-169400791D01*
X155199133Y-169347177D01*
X155211645Y-169252774D01*
X155219585Y-169159194D01*
X155231195Y-169105269D01*
X155238764Y-169048161D01*
X155262481Y-168959957D01*
X155281376Y-168872194D01*
X155301088Y-168816374D01*
X155317086Y-168756876D01*
X155350600Y-168676166D01*
X155379132Y-168595369D01*
X155407614Y-168538862D01*
X155432759Y-168478306D01*
X155474532Y-168406099D01*
X155511265Y-168333221D01*
X155548971Y-168277425D01*
X155583802Y-168217217D01*
X155632244Y-168154200D01*
X155675647Y-168089974D01*
X155722822Y-168036370D01*
X155767632Y-167978078D01*
X155821067Y-167924737D01*
X155869595Y-167869595D01*
X155926269Y-167819718D01*
X155981104Y-167764979D01*
X156037892Y-167721482D01*
X156089974Y-167675647D01*
X156155896Y-167631098D01*
X156220564Y-167581566D01*
X156279107Y-167547834D01*
X156333221Y-167511265D01*
X156407923Y-167473612D01*
X156481915Y-167430979D01*
X156540675Y-167406700D01*
X156595369Y-167379132D01*
X156678104Y-167349916D01*
X156760687Y-167315793D01*
X156818280Y-167300415D01*
X156872194Y-167281376D01*
X156961970Y-167262047D01*
X157052108Y-167237979D01*
X157107252Y-167230768D01*
X157159194Y-167219585D01*
X157254818Y-167211472D01*
X157351193Y-167198869D01*
X157402817Y-167198914D01*
X157451707Y-167194766D01*
X157551711Y-167199045D01*
X157551711Y-167199045D01*
G37*
G36*
X144049902Y-165744283D02*
G01*
X144094637Y-165744595D01*
X144138460Y-165753590D01*
X144188360Y-165758835D01*
X144230132Y-165772408D01*
X144267723Y-165780124D01*
X144314851Y-165799935D01*
X144368488Y-165817363D01*
X144401099Y-165836191D01*
X144430614Y-165848598D01*
X144478301Y-165880763D01*
X144532511Y-165912061D01*
X144555826Y-165933054D01*
X144577101Y-165947404D01*
X144622183Y-165992802D01*
X144673261Y-166038793D01*
X144688003Y-166059083D01*
X144701608Y-166072784D01*
X144740643Y-166131537D01*
X144784586Y-166192019D01*
X144792221Y-166209168D01*
X144799388Y-166219955D01*
X144828865Y-166291472D01*
X144861621Y-166365042D01*
X144864211Y-166377225D01*
X144866724Y-166383323D01*
X144883292Y-166466997D01*
X144900999Y-166550301D01*
X144900999Y-166739699D01*
X144898115Y-166753269D01*
X144898030Y-166759331D01*
X144879342Y-166841585D01*
X144861621Y-166924958D01*
X144859129Y-166930555D01*
X144859078Y-166930780D01*
X144787210Y-167092197D01*
X144787078Y-167092385D01*
X144784586Y-167097981D01*
X144734480Y-167166946D01*
X144685357Y-167236582D01*
X144680585Y-167241126D01*
X144673261Y-167251207D01*
X144613396Y-167305110D01*
X144557396Y-167358438D01*
X144546464Y-167365376D01*
X144532511Y-167377939D01*
X144467764Y-167415321D01*
X144408211Y-167453114D01*
X144390209Y-167460097D01*
X144368488Y-167472637D01*
X144303115Y-167493878D01*
X144243468Y-167517014D01*
X144218200Y-167521469D01*
X144188360Y-167531165D01*
X144126095Y-167537709D01*
X144069460Y-167547695D01*
X144037459Y-167547025D01*
X144000000Y-167550962D01*
X143943902Y-167545066D01*
X143892799Y-167543996D01*
X143855323Y-167535756D01*
X143811640Y-167531165D01*
X143763917Y-167515659D01*
X143720225Y-167506052D01*
X143679230Y-167488142D01*
X143631512Y-167472637D01*
X143593473Y-167450675D01*
X143558310Y-167435313D01*
X143516337Y-167406141D01*
X143467489Y-167377939D01*
X143439504Y-167352741D01*
X143413215Y-167334470D01*
X143373257Y-167293092D01*
X143326739Y-167251207D01*
X143308296Y-167225823D01*
X143290473Y-167207366D01*
X143255821Y-167153597D01*
X143215414Y-167097981D01*
X143205212Y-167075066D01*
X143194754Y-167058839D01*
X143168789Y-166993261D01*
X143138379Y-166924958D01*
X143134476Y-166906596D01*
X143129707Y-166894551D01*
X143115740Y-166818448D01*
X143099001Y-166739699D01*
X143099001Y-166727246D01*
X143097811Y-166720762D01*
X143099001Y-166635535D01*
X143099001Y-166550301D01*
X143100275Y-166544308D01*
X143100278Y-166544077D01*
X143137015Y-166371246D01*
X143137105Y-166371036D01*
X143138379Y-166365042D01*
X143173042Y-166287188D01*
X143206622Y-166208839D01*
X143210348Y-166203397D01*
X143215414Y-166192019D01*
X143262746Y-166126872D01*
X143306452Y-166063041D01*
X143315706Y-166053979D01*
X143326739Y-166038793D01*
X143382297Y-165988769D01*
X143432693Y-165939417D01*
X143448848Y-165928846D01*
X143467489Y-165912061D01*
X143527026Y-165877687D01*
X143580551Y-165842662D01*
X143604340Y-165833050D01*
X143631512Y-165817363D01*
X143691045Y-165798019D01*
X143744376Y-165776472D01*
X143775820Y-165770474D01*
X143811640Y-165758835D01*
X143867744Y-165752938D01*
X143917945Y-165743362D01*
X143956312Y-165743630D01*
X144000000Y-165739038D01*
X144049902Y-165744283D01*
X144049902Y-165744283D01*
G37*
G36*
X151049902Y-165744283D02*
G01*
X151094637Y-165744595D01*
X151138460Y-165753590D01*
X151188360Y-165758835D01*
X151230132Y-165772408D01*
X151267723Y-165780124D01*
X151314851Y-165799935D01*
X151368488Y-165817363D01*
X151401099Y-165836191D01*
X151430614Y-165848598D01*
X151478301Y-165880763D01*
X151532511Y-165912061D01*
X151555826Y-165933054D01*
X151577101Y-165947404D01*
X151622183Y-165992802D01*
X151673261Y-166038793D01*
X151688003Y-166059083D01*
X151701608Y-166072784D01*
X151740643Y-166131537D01*
X151784586Y-166192019D01*
X151792221Y-166209168D01*
X151799388Y-166219955D01*
X151828865Y-166291472D01*
X151861621Y-166365042D01*
X151864211Y-166377225D01*
X151866724Y-166383323D01*
X151883292Y-166466997D01*
X151900999Y-166550301D01*
X151900999Y-166739699D01*
X151898115Y-166753269D01*
X151898030Y-166759331D01*
X151879342Y-166841585D01*
X151861621Y-166924958D01*
X151859129Y-166930555D01*
X151859078Y-166930780D01*
X151787210Y-167092197D01*
X151787078Y-167092385D01*
X151784586Y-167097981D01*
X151734480Y-167166946D01*
X151685357Y-167236582D01*
X151680585Y-167241126D01*
X151673261Y-167251207D01*
X151613396Y-167305110D01*
X151557396Y-167358438D01*
X151546464Y-167365376D01*
X151532511Y-167377939D01*
X151467764Y-167415321D01*
X151408211Y-167453114D01*
X151390209Y-167460097D01*
X151368488Y-167472637D01*
X151303115Y-167493878D01*
X151243468Y-167517014D01*
X151218200Y-167521469D01*
X151188360Y-167531165D01*
X151126095Y-167537709D01*
X151069460Y-167547695D01*
X151037459Y-167547025D01*
X151000000Y-167550962D01*
X150943902Y-167545066D01*
X150892799Y-167543996D01*
X150855323Y-167535756D01*
X150811640Y-167531165D01*
X150763917Y-167515659D01*
X150720225Y-167506052D01*
X150679230Y-167488142D01*
X150631512Y-167472637D01*
X150593473Y-167450675D01*
X150558310Y-167435313D01*
X150516337Y-167406141D01*
X150467489Y-167377939D01*
X150439504Y-167352741D01*
X150413215Y-167334470D01*
X150373257Y-167293092D01*
X150326739Y-167251207D01*
X150308296Y-167225823D01*
X150290473Y-167207366D01*
X150255821Y-167153597D01*
X150215414Y-167097981D01*
X150205212Y-167075066D01*
X150194754Y-167058839D01*
X150168789Y-166993261D01*
X150138379Y-166924958D01*
X150134476Y-166906596D01*
X150129707Y-166894551D01*
X150115740Y-166818448D01*
X150099001Y-166739699D01*
X150099001Y-166727246D01*
X150097811Y-166720762D01*
X150099001Y-166635535D01*
X150099001Y-166550301D01*
X150100275Y-166544308D01*
X150100278Y-166544077D01*
X150137015Y-166371246D01*
X150137105Y-166371036D01*
X150138379Y-166365042D01*
X150173042Y-166287188D01*
X150206622Y-166208839D01*
X150210348Y-166203397D01*
X150215414Y-166192019D01*
X150262746Y-166126872D01*
X150306452Y-166063041D01*
X150315706Y-166053979D01*
X150326739Y-166038793D01*
X150382297Y-165988769D01*
X150432693Y-165939417D01*
X150448848Y-165928846D01*
X150467489Y-165912061D01*
X150527026Y-165877687D01*
X150580551Y-165842662D01*
X150604340Y-165833050D01*
X150631512Y-165817363D01*
X150691045Y-165798019D01*
X150744376Y-165776472D01*
X150775820Y-165770474D01*
X150811640Y-165758835D01*
X150867744Y-165752938D01*
X150917945Y-165743362D01*
X150956312Y-165743630D01*
X151000000Y-165739038D01*
X151049902Y-165744283D01*
X151049902Y-165744283D01*
G37*
G36*
X147462695Y-139296927D02*
G01*
X147481015Y-139295501D01*
X147519958Y-139305536D01*
X147551903Y-139310339D01*
X147568595Y-139318069D01*
X147594171Y-139324660D01*
X147621114Y-139342392D01*
X147643141Y-139352593D01*
X147663050Y-139369991D01*
X147691781Y-139388900D01*
X147706625Y-139408071D01*
X147718846Y-139418751D01*
X147737393Y-139447807D01*
X147763321Y-139481294D01*
X147768558Y-139496633D01*
X147772946Y-139503508D01*
X147784863Y-139544394D01*
X147801075Y-139591880D01*
X147800007Y-139714238D01*
X147782481Y-139762785D01*
X147769001Y-139804896D01*
X147765302Y-139810369D01*
X147760328Y-139824148D01*
X147732880Y-139858348D01*
X147712703Y-139888206D01*
X147701397Y-139897576D01*
X147687188Y-139915280D01*
X147656838Y-139934504D01*
X147635289Y-139952362D01*
X147614420Y-139961371D01*
X147588471Y-139977807D01*
X147561288Y-139984308D01*
X147542976Y-139992213D01*
X147512444Y-139995989D01*
X147474823Y-140004986D01*
X147454992Y-140003094D01*
X147443194Y-140004553D01*
X147404880Y-139998313D01*
X147358499Y-139993888D01*
X147347699Y-139989000D01*
X147343952Y-139988390D01*
X147301324Y-139968012D01*
X147252041Y-139945708D01*
X147212990Y-139908973D01*
X147178346Y-139877943D01*
X147176015Y-139874191D01*
X147166928Y-139865643D01*
X147145449Y-139824989D01*
X147125289Y-139792539D01*
X147121935Y-139780485D01*
X147112340Y-139762325D01*
X147106418Y-139724722D01*
X147098334Y-139695671D01*
X147098603Y-139675103D01*
X147094161Y-139646895D01*
X147099361Y-139617250D01*
X147099651Y-139595138D01*
X147108037Y-139567795D01*
X147114351Y-139531799D01*
X147125010Y-139512451D01*
X147129132Y-139499010D01*
X147149280Y-139468395D01*
X147170735Y-139429450D01*
X147181117Y-139420020D01*
X147184404Y-139415025D01*
X147218580Y-139385991D01*
X147257232Y-139350882D01*
X147307950Y-139328987D01*
X147352852Y-139308948D01*
X147355066Y-139308647D01*
X147364514Y-139304568D01*
X147412446Y-139300838D01*
X147452474Y-139295390D01*
X147462695Y-139296927D01*
X147462695Y-139296927D01*
G37*
G36*
X157551711Y-132199045D02*
G01*
X157652823Y-132199133D01*
X157700034Y-132205390D01*
X157745022Y-132207315D01*
X157847772Y-132224971D01*
X157951839Y-132238764D01*
X157993979Y-132250095D01*
X158034350Y-132257032D01*
X158138002Y-132288820D01*
X158243124Y-132317086D01*
X158279727Y-132332285D01*
X158315024Y-132343110D01*
X158417660Y-132389560D01*
X158521694Y-132432759D01*
X158552533Y-132450599D01*
X158582476Y-132464151D01*
X158681998Y-132525497D01*
X158782783Y-132583802D01*
X158807856Y-132603076D01*
X158832387Y-132618197D01*
X158926685Y-132694422D01*
X159021922Y-132767632D01*
X159041433Y-132787177D01*
X159060702Y-132802753D01*
X159147649Y-132893579D01*
X159235021Y-132981104D01*
X159249372Y-132999840D01*
X159263709Y-133014817D01*
X159341159Y-133119676D01*
X159418434Y-133220564D01*
X159428215Y-133237539D01*
X159438127Y-133250959D01*
X159504011Y-133369087D01*
X159569021Y-133481915D01*
X159574973Y-133496319D01*
X159581130Y-133507359D01*
X159633536Y-133638052D01*
X159684207Y-133760687D01*
X159687192Y-133771864D01*
X159690388Y-133779836D01*
X159727525Y-133922916D01*
X159762021Y-134052108D01*
X159763000Y-134059595D01*
X159764141Y-134063991D01*
X159784429Y-134223467D01*
X159801131Y-134351193D01*
X159800867Y-134652823D01*
X159793626Y-134707455D01*
X159792897Y-134742262D01*
X159775284Y-134845847D01*
X159761236Y-134951839D01*
X159750425Y-134992044D01*
X159743898Y-135030433D01*
X159711677Y-135136153D01*
X159682914Y-135243124D01*
X159668480Y-135277884D01*
X159658308Y-135311260D01*
X159611164Y-135415916D01*
X159567241Y-135521694D01*
X159550406Y-135550795D01*
X159537736Y-135578921D01*
X159475427Y-135680401D01*
X159416198Y-135782783D01*
X159398145Y-135806268D01*
X159384124Y-135829103D01*
X159306678Y-135925255D01*
X159232368Y-136021922D01*
X159214241Y-136040017D01*
X159199971Y-136057734D01*
X159107659Y-136146413D01*
X159018896Y-136235021D01*
X159001751Y-136248153D01*
X158988255Y-136261118D01*
X158881597Y-136340184D01*
X158779436Y-136418434D01*
X158764193Y-136427217D01*
X158752419Y-136435945D01*
X158632107Y-136503323D01*
X158518085Y-136569021D01*
X158505537Y-136574206D01*
X158496278Y-136579391D01*
X158362698Y-136633226D01*
X158239313Y-136684207D01*
X158230079Y-136686673D01*
X158223984Y-136689129D01*
X158076069Y-136727796D01*
X157947892Y-136762021D01*
X157942394Y-136762740D01*
X157939957Y-136763377D01*
X157760636Y-136786508D01*
X157648807Y-136801131D01*
X157536053Y-136801032D01*
X157355224Y-136801190D01*
X157352723Y-136800872D01*
X157347177Y-136800867D01*
X157215561Y-136783423D01*
X157063991Y-136764141D01*
X157057638Y-136762492D01*
X157048161Y-136761236D01*
X156919180Y-136726555D01*
X156779836Y-136690388D01*
X156769992Y-136686441D01*
X156756876Y-136682914D01*
X156635363Y-136632457D01*
X156507359Y-136581130D01*
X156494551Y-136573987D01*
X156478306Y-136567241D01*
X156366895Y-136502788D01*
X156250959Y-136438127D01*
X156235913Y-136427014D01*
X156217217Y-136416198D01*
X156117774Y-136339755D01*
X156014817Y-136263709D01*
X155998382Y-136247976D01*
X155978078Y-136232368D01*
X155891956Y-136146095D01*
X155802753Y-136060702D01*
X155785902Y-136039856D01*
X155764979Y-136018896D01*
X155693063Y-135925004D01*
X155618197Y-135832387D01*
X155602012Y-135806130D01*
X155581566Y-135779436D01*
X155524375Y-135680178D01*
X155464151Y-135582476D01*
X155449766Y-135550690D01*
X155430979Y-135518085D01*
X155388690Y-135415737D01*
X155343110Y-135315024D01*
X155331690Y-135277786D01*
X155315793Y-135239313D01*
X155288210Y-135136011D01*
X155257032Y-135034350D01*
X155249752Y-134991981D01*
X155237979Y-134947892D01*
X155224618Y-134845717D01*
X155207315Y-134745022D01*
X155205304Y-134698017D01*
X155198869Y-134648807D01*
X155198956Y-134549638D01*
X155194766Y-134451707D01*
X155199086Y-134400791D01*
X155199133Y-134347177D01*
X155211645Y-134252774D01*
X155219585Y-134159194D01*
X155231195Y-134105269D01*
X155238764Y-134048161D01*
X155262481Y-133959957D01*
X155281376Y-133872194D01*
X155301088Y-133816374D01*
X155317086Y-133756876D01*
X155350600Y-133676166D01*
X155379132Y-133595369D01*
X155407614Y-133538862D01*
X155432759Y-133478306D01*
X155474532Y-133406099D01*
X155511265Y-133333221D01*
X155548971Y-133277425D01*
X155583802Y-133217217D01*
X155632244Y-133154200D01*
X155675647Y-133089974D01*
X155722822Y-133036370D01*
X155767632Y-132978078D01*
X155821067Y-132924737D01*
X155869595Y-132869595D01*
X155926269Y-132819718D01*
X155981104Y-132764979D01*
X156037892Y-132721482D01*
X156089974Y-132675647D01*
X156155896Y-132631098D01*
X156220564Y-132581566D01*
X156279107Y-132547834D01*
X156333221Y-132511265D01*
X156407923Y-132473612D01*
X156481915Y-132430979D01*
X156540675Y-132406700D01*
X156595369Y-132379132D01*
X156678104Y-132349916D01*
X156760687Y-132315793D01*
X156818280Y-132300415D01*
X156872194Y-132281376D01*
X156961970Y-132262047D01*
X157052108Y-132237979D01*
X157107252Y-132230768D01*
X157159194Y-132219585D01*
X157254818Y-132211472D01*
X157351193Y-132198869D01*
X157402817Y-132198914D01*
X157451707Y-132194766D01*
X157551711Y-132199045D01*
X157551711Y-132199045D01*
G37*
G36*
X151396675Y-127852627D02*
G01*
X151437905Y-127854680D01*
X151486080Y-127866468D01*
X151540954Y-127874963D01*
X151579728Y-127889383D01*
X151614176Y-127897812D01*
X151664544Y-127920925D01*
X151722037Y-127942307D01*
X151752173Y-127961138D01*
X151779107Y-127973498D01*
X151828922Y-128009097D01*
X151885880Y-128044688D01*
X151907387Y-128065168D01*
X151926749Y-128079005D01*
X151972931Y-128127585D01*
X152025790Y-128177922D01*
X152039404Y-128197511D01*
X152051782Y-128210531D01*
X152091083Y-128271866D01*
X152136052Y-128336569D01*
X152143145Y-128353119D01*
X152149683Y-128363322D01*
X152178818Y-128436349D01*
X152212162Y-128514146D01*
X152214606Y-128526051D01*
X152216928Y-128531872D01*
X152232813Y-128614748D01*
X152251010Y-128703400D01*
X152250988Y-128709580D01*
X152251056Y-128709932D01*
X152250404Y-128896704D01*
X152250335Y-128897053D01*
X152250313Y-128903237D01*
X152231491Y-128991785D01*
X152215034Y-129074522D01*
X152212671Y-129080327D01*
X152210144Y-129092215D01*
X152176246Y-129169806D01*
X152146613Y-129242599D01*
X152140009Y-129252748D01*
X152132797Y-129269257D01*
X152087357Y-129333672D01*
X152047645Y-129394707D01*
X152035180Y-129407637D01*
X152021430Y-129427129D01*
X151968221Y-129477096D01*
X151921704Y-129525349D01*
X151902248Y-129539048D01*
X151880593Y-129559384D01*
X151823380Y-129594582D01*
X151773323Y-129629828D01*
X151746302Y-129642000D01*
X151716039Y-129660618D01*
X151658399Y-129681597D01*
X151607868Y-129704360D01*
X151573362Y-129712549D01*
X151534490Y-129726697D01*
X151479568Y-129734807D01*
X151431307Y-129746260D01*
X151390057Y-129748025D01*
X151343363Y-129754920D01*
X151293741Y-129752146D01*
X151250000Y-129754017D01*
X151203403Y-129747095D01*
X151150464Y-129744135D01*
X151108057Y-129732931D01*
X151070504Y-129727352D01*
X151020566Y-129709815D01*
X150963673Y-129694783D01*
X150929600Y-129677869D01*
X150899288Y-129667224D01*
X150848557Y-129637639D01*
X150790621Y-129608879D01*
X150765245Y-129589053D01*
X150742528Y-129575805D01*
X150693930Y-129533335D01*
X150638378Y-129489933D01*
X150621292Y-129469857D01*
X150605884Y-129456392D01*
X150562628Y-129400928D01*
X150513161Y-129342804D01*
X150503277Y-129324825D01*
X150494285Y-129313295D01*
X150459661Y-129245488D01*
X150420086Y-129173501D01*
X150415749Y-129159492D01*
X150411760Y-129151679D01*
X150388983Y-129073022D01*
X150362955Y-128988941D01*
X150362095Y-128980173D01*
X150361285Y-128977375D01*
X150353295Y-128890423D01*
X150344102Y-128796663D01*
X150353949Y-128702976D01*
X150362546Y-128616079D01*
X150363376Y-128613287D01*
X150364297Y-128604521D01*
X150390920Y-128520594D01*
X150414237Y-128442129D01*
X150418280Y-128434346D01*
X150422715Y-128420365D01*
X150462811Y-128348621D01*
X150497891Y-128281090D01*
X150506956Y-128269632D01*
X150516969Y-128251716D01*
X150566849Y-128193930D01*
X150610484Y-128138776D01*
X150625984Y-128125420D01*
X150643210Y-128105464D01*
X150699069Y-128062447D01*
X150747959Y-128020321D01*
X150770768Y-128007232D01*
X150796281Y-127987584D01*
X150854401Y-127959237D01*
X150905350Y-127929999D01*
X150935746Y-127919562D01*
X150969928Y-127902891D01*
X151026921Y-127888258D01*
X151076983Y-127871069D01*
X151114572Y-127865753D01*
X151157059Y-127854844D01*
X151210020Y-127852254D01*
X151256663Y-127845657D01*
X151300388Y-127847834D01*
X151350028Y-127845406D01*
X151396675Y-127852627D01*
X151396675Y-127852627D01*
G37*
G36*
X149679899Y-127851959D02*
G01*
X149696769Y-127863231D01*
X149708041Y-127880101D01*
X149714448Y-127912312D01*
X149714448Y-129687688D01*
X149711999Y-129700000D01*
X149708041Y-129719899D01*
X149696769Y-129736769D01*
X149679899Y-129748041D01*
X149660000Y-129751999D01*
X149647688Y-129754448D01*
X147872312Y-129754448D01*
X147840101Y-129748041D01*
X147823231Y-129736769D01*
X147811959Y-129719899D01*
X147805552Y-129687688D01*
X147805552Y-127912312D01*
X147811959Y-127880101D01*
X147823231Y-127863231D01*
X147840101Y-127851959D01*
X147872312Y-127845552D01*
X149647688Y-127845552D01*
X149679899Y-127851959D01*
X149679899Y-127851959D01*
G37*
G36*
X159669899Y-127801959D02*
G01*
X159686769Y-127813231D01*
X159698041Y-127830101D01*
X159704448Y-127862312D01*
X159704448Y-129537688D01*
X159698041Y-129569899D01*
X159686769Y-129586769D01*
X159669899Y-129598041D01*
X159650000Y-129601999D01*
X159637688Y-129604448D01*
X157962312Y-129604448D01*
X157930101Y-129598041D01*
X157913231Y-129586769D01*
X157901959Y-129569899D01*
X157895552Y-129537688D01*
X157895552Y-127862312D01*
X157901959Y-127830101D01*
X157913231Y-127813231D01*
X157930101Y-127801959D01*
X157962312Y-127795552D01*
X159637688Y-127795552D01*
X159669899Y-127801959D01*
X159669899Y-127801959D01*
G37*
G36*
X141989899Y-125301959D02*
G01*
X142006769Y-125313231D01*
X142018041Y-125330101D01*
X142024448Y-125362312D01*
X142024448Y-127037688D01*
X142021999Y-127050000D01*
X142018041Y-127069899D01*
X142006769Y-127086769D01*
X141989899Y-127098041D01*
X141970000Y-127101999D01*
X141957688Y-127104448D01*
X140282312Y-127104448D01*
X140250101Y-127098041D01*
X140233231Y-127086769D01*
X140221959Y-127069899D01*
X140215552Y-127037688D01*
X140215552Y-125362312D01*
X140221959Y-125330101D01*
X140233231Y-125313231D01*
X140250101Y-125301959D01*
X140282312Y-125295552D01*
X141957688Y-125295552D01*
X141989899Y-125301959D01*
X141989899Y-125301959D01*
G37*
G36*
X151468360Y-125313835D02*
G01*
X151549397Y-125340166D01*
X151636663Y-125367848D01*
X151639655Y-125369493D01*
X151648488Y-125372363D01*
X151720466Y-125413919D01*
X151791499Y-125452970D01*
X151798986Y-125459253D01*
X151812511Y-125467061D01*
X151870259Y-125519057D01*
X151926857Y-125566549D01*
X151936962Y-125579118D01*
X151953261Y-125593793D01*
X151995454Y-125651867D01*
X152037579Y-125704260D01*
X152047994Y-125724182D01*
X152064586Y-125747019D01*
X152091297Y-125807012D01*
X152119439Y-125860843D01*
X152127582Y-125888510D01*
X152141621Y-125920042D01*
X152153992Y-125978241D01*
X152169328Y-126030349D01*
X152172518Y-126065401D01*
X152180999Y-126105301D01*
X152180999Y-126158592D01*
X152185343Y-126206324D01*
X152180999Y-126247653D01*
X152180999Y-126294699D01*
X152171217Y-126340721D01*
X152166873Y-126382047D01*
X152152702Y-126427827D01*
X152141621Y-126479958D01*
X152125028Y-126517226D01*
X152114622Y-126550843D01*
X152088789Y-126598620D01*
X152064586Y-126652981D01*
X152044298Y-126680905D01*
X152030580Y-126706276D01*
X151991859Y-126753082D01*
X151953261Y-126806207D01*
X151932284Y-126825095D01*
X151917952Y-126842419D01*
X151865845Y-126884917D01*
X151812511Y-126932939D01*
X151793524Y-126943901D01*
X151781025Y-126954095D01*
X151715780Y-126988786D01*
X151648488Y-127027637D01*
X151633636Y-127032463D01*
X151625003Y-127037053D01*
X151547430Y-127060473D01*
X151468360Y-127086165D01*
X151459114Y-127087137D01*
X151455851Y-127088122D01*
X151364710Y-127097059D01*
X151327211Y-127101000D01*
X151232789Y-127101000D01*
X151091640Y-127086165D01*
X151010603Y-127059834D01*
X150923337Y-127032152D01*
X150920345Y-127030507D01*
X150911512Y-127027637D01*
X150839534Y-126986081D01*
X150768501Y-126947030D01*
X150761014Y-126940747D01*
X150747489Y-126932939D01*
X150689741Y-126880943D01*
X150633143Y-126833451D01*
X150623038Y-126820882D01*
X150606739Y-126806207D01*
X150564546Y-126748133D01*
X150522421Y-126695740D01*
X150512006Y-126675818D01*
X150495414Y-126652981D01*
X150468703Y-126592988D01*
X150440561Y-126539157D01*
X150432418Y-126511490D01*
X150418379Y-126479958D01*
X150406008Y-126421759D01*
X150390672Y-126369651D01*
X150387482Y-126334599D01*
X150379001Y-126294699D01*
X150379001Y-126241408D01*
X150374657Y-126193676D01*
X150379001Y-126152347D01*
X150379001Y-126105301D01*
X150388783Y-126059279D01*
X150393127Y-126017953D01*
X150407298Y-125972173D01*
X150418379Y-125920042D01*
X150434972Y-125882774D01*
X150445378Y-125849157D01*
X150471211Y-125801380D01*
X150495414Y-125747019D01*
X150515702Y-125719095D01*
X150529420Y-125693724D01*
X150568141Y-125646918D01*
X150606739Y-125593793D01*
X150627716Y-125574905D01*
X150642048Y-125557581D01*
X150694155Y-125515083D01*
X150747489Y-125467061D01*
X150766476Y-125456099D01*
X150778975Y-125445905D01*
X150844220Y-125411214D01*
X150911512Y-125372363D01*
X150926364Y-125367537D01*
X150934997Y-125362947D01*
X151012570Y-125339527D01*
X151091640Y-125313835D01*
X151100886Y-125312863D01*
X151104149Y-125311878D01*
X151195290Y-125302941D01*
X151232789Y-125299000D01*
X151327211Y-125299000D01*
X151468360Y-125313835D01*
X151468360Y-125313835D01*
G37*
G36*
X154008360Y-125313835D02*
G01*
X154089397Y-125340166D01*
X154176663Y-125367848D01*
X154179655Y-125369493D01*
X154188488Y-125372363D01*
X154260466Y-125413919D01*
X154331499Y-125452970D01*
X154338986Y-125459253D01*
X154352511Y-125467061D01*
X154410259Y-125519057D01*
X154466857Y-125566549D01*
X154476962Y-125579118D01*
X154493261Y-125593793D01*
X154535454Y-125651867D01*
X154577579Y-125704260D01*
X154587994Y-125724182D01*
X154604586Y-125747019D01*
X154631297Y-125807012D01*
X154659439Y-125860843D01*
X154667582Y-125888510D01*
X154681621Y-125920042D01*
X154693992Y-125978241D01*
X154709328Y-126030349D01*
X154712518Y-126065401D01*
X154720999Y-126105301D01*
X154720999Y-126158592D01*
X154725343Y-126206324D01*
X154720999Y-126247653D01*
X154720999Y-126294699D01*
X154711217Y-126340721D01*
X154706873Y-126382047D01*
X154692702Y-126427827D01*
X154681621Y-126479958D01*
X154665028Y-126517226D01*
X154654622Y-126550843D01*
X154628789Y-126598620D01*
X154604586Y-126652981D01*
X154584298Y-126680905D01*
X154570580Y-126706276D01*
X154531859Y-126753082D01*
X154493261Y-126806207D01*
X154472284Y-126825095D01*
X154457952Y-126842419D01*
X154405845Y-126884917D01*
X154352511Y-126932939D01*
X154333524Y-126943901D01*
X154321025Y-126954095D01*
X154255780Y-126988786D01*
X154188488Y-127027637D01*
X154173636Y-127032463D01*
X154165003Y-127037053D01*
X154087430Y-127060473D01*
X154008360Y-127086165D01*
X153999114Y-127087137D01*
X153995851Y-127088122D01*
X153904710Y-127097059D01*
X153867211Y-127101000D01*
X153772789Y-127101000D01*
X153631640Y-127086165D01*
X153550603Y-127059834D01*
X153463337Y-127032152D01*
X153460345Y-127030507D01*
X153451512Y-127027637D01*
X153379534Y-126986081D01*
X153308501Y-126947030D01*
X153301014Y-126940747D01*
X153287489Y-126932939D01*
X153229741Y-126880943D01*
X153173143Y-126833451D01*
X153163038Y-126820882D01*
X153146739Y-126806207D01*
X153104546Y-126748133D01*
X153062421Y-126695740D01*
X153052006Y-126675818D01*
X153035414Y-126652981D01*
X153008703Y-126592988D01*
X152980561Y-126539157D01*
X152972418Y-126511490D01*
X152958379Y-126479958D01*
X152946008Y-126421759D01*
X152930672Y-126369651D01*
X152927482Y-126334599D01*
X152919001Y-126294699D01*
X152919001Y-126241408D01*
X152914657Y-126193676D01*
X152919001Y-126152347D01*
X152919001Y-126105301D01*
X152928783Y-126059279D01*
X152933127Y-126017953D01*
X152947298Y-125972173D01*
X152958379Y-125920042D01*
X152974972Y-125882774D01*
X152985378Y-125849157D01*
X153011211Y-125801380D01*
X153035414Y-125747019D01*
X153055702Y-125719095D01*
X153069420Y-125693724D01*
X153108141Y-125646918D01*
X153146739Y-125593793D01*
X153167716Y-125574905D01*
X153182048Y-125557581D01*
X153234155Y-125515083D01*
X153287489Y-125467061D01*
X153306476Y-125456099D01*
X153318975Y-125445905D01*
X153384220Y-125411214D01*
X153451512Y-125372363D01*
X153466364Y-125367537D01*
X153474997Y-125362947D01*
X153552570Y-125339527D01*
X153631640Y-125313835D01*
X153640886Y-125312863D01*
X153644149Y-125311878D01*
X153735290Y-125302941D01*
X153772789Y-125299000D01*
X153867211Y-125299000D01*
X154008360Y-125313835D01*
X154008360Y-125313835D01*
G37*
G36*
X156548360Y-125313835D02*
G01*
X156629397Y-125340166D01*
X156716663Y-125367848D01*
X156719655Y-125369493D01*
X156728488Y-125372363D01*
X156800466Y-125413919D01*
X156871499Y-125452970D01*
X156878986Y-125459253D01*
X156892511Y-125467061D01*
X156950259Y-125519057D01*
X157006857Y-125566549D01*
X157016962Y-125579118D01*
X157033261Y-125593793D01*
X157075454Y-125651867D01*
X157117579Y-125704260D01*
X157127994Y-125724182D01*
X157144586Y-125747019D01*
X157171297Y-125807012D01*
X157199439Y-125860843D01*
X157207582Y-125888510D01*
X157221621Y-125920042D01*
X157233992Y-125978241D01*
X157249328Y-126030349D01*
X157252518Y-126065401D01*
X157260999Y-126105301D01*
X157260999Y-126158592D01*
X157265343Y-126206324D01*
X157260999Y-126247653D01*
X157260999Y-126294699D01*
X157251217Y-126340721D01*
X157246873Y-126382047D01*
X157232702Y-126427827D01*
X157221621Y-126479958D01*
X157205028Y-126517226D01*
X157194622Y-126550843D01*
X157168789Y-126598620D01*
X157144586Y-126652981D01*
X157124298Y-126680905D01*
X157110580Y-126706276D01*
X157071859Y-126753082D01*
X157033261Y-126806207D01*
X157012284Y-126825095D01*
X156997952Y-126842419D01*
X156945845Y-126884917D01*
X156892511Y-126932939D01*
X156873524Y-126943901D01*
X156861025Y-126954095D01*
X156795780Y-126988786D01*
X156728488Y-127027637D01*
X156713636Y-127032463D01*
X156705003Y-127037053D01*
X156627430Y-127060473D01*
X156548360Y-127086165D01*
X156539114Y-127087137D01*
X156535851Y-127088122D01*
X156444710Y-127097059D01*
X156407211Y-127101000D01*
X156312789Y-127101000D01*
X156171640Y-127086165D01*
X156090603Y-127059834D01*
X156003337Y-127032152D01*
X156000345Y-127030507D01*
X155991512Y-127027637D01*
X155919534Y-126986081D01*
X155848501Y-126947030D01*
X155841014Y-126940747D01*
X155827489Y-126932939D01*
X155769741Y-126880943D01*
X155713143Y-126833451D01*
X155703038Y-126820882D01*
X155686739Y-126806207D01*
X155644546Y-126748133D01*
X155602421Y-126695740D01*
X155592006Y-126675818D01*
X155575414Y-126652981D01*
X155548703Y-126592988D01*
X155520561Y-126539157D01*
X155512418Y-126511490D01*
X155498379Y-126479958D01*
X155486008Y-126421759D01*
X155470672Y-126369651D01*
X155467482Y-126334599D01*
X155459001Y-126294699D01*
X155459001Y-126241408D01*
X155454657Y-126193676D01*
X155459001Y-126152347D01*
X155459001Y-126105301D01*
X155468783Y-126059279D01*
X155473127Y-126017953D01*
X155487298Y-125972173D01*
X155498379Y-125920042D01*
X155514972Y-125882774D01*
X155525378Y-125849157D01*
X155551211Y-125801380D01*
X155575414Y-125747019D01*
X155595702Y-125719095D01*
X155609420Y-125693724D01*
X155648141Y-125646918D01*
X155686739Y-125593793D01*
X155707716Y-125574905D01*
X155722048Y-125557581D01*
X155774155Y-125515083D01*
X155827489Y-125467061D01*
X155846476Y-125456099D01*
X155858975Y-125445905D01*
X155924220Y-125411214D01*
X155991512Y-125372363D01*
X156006364Y-125367537D01*
X156014997Y-125362947D01*
X156092570Y-125339527D01*
X156171640Y-125313835D01*
X156180886Y-125312863D01*
X156184149Y-125311878D01*
X156275290Y-125302941D01*
X156312789Y-125299000D01*
X156407211Y-125299000D01*
X156548360Y-125313835D01*
X156548360Y-125313835D01*
G37*
G36*
X143848360Y-125313835D02*
G01*
X143929397Y-125340166D01*
X144016663Y-125367848D01*
X144019655Y-125369493D01*
X144028488Y-125372363D01*
X144100466Y-125413919D01*
X144171499Y-125452970D01*
X144178986Y-125459253D01*
X144192511Y-125467061D01*
X144250259Y-125519057D01*
X144306857Y-125566549D01*
X144316962Y-125579118D01*
X144333261Y-125593793D01*
X144375454Y-125651867D01*
X144417579Y-125704260D01*
X144427994Y-125724182D01*
X144444586Y-125747019D01*
X144471297Y-125807012D01*
X144499439Y-125860843D01*
X144507582Y-125888510D01*
X144521621Y-125920042D01*
X144533992Y-125978241D01*
X144549328Y-126030349D01*
X144552518Y-126065401D01*
X144560999Y-126105301D01*
X144560999Y-126158592D01*
X144565343Y-126206324D01*
X144560999Y-126247653D01*
X144560999Y-126294699D01*
X144551217Y-126340721D01*
X144546873Y-126382047D01*
X144532702Y-126427827D01*
X144521621Y-126479958D01*
X144505028Y-126517226D01*
X144494622Y-126550843D01*
X144468789Y-126598620D01*
X144444586Y-126652981D01*
X144424298Y-126680905D01*
X144410580Y-126706276D01*
X144371859Y-126753082D01*
X144333261Y-126806207D01*
X144312284Y-126825095D01*
X144297952Y-126842419D01*
X144245845Y-126884917D01*
X144192511Y-126932939D01*
X144173524Y-126943901D01*
X144161025Y-126954095D01*
X144095780Y-126988786D01*
X144028488Y-127027637D01*
X144013636Y-127032463D01*
X144005003Y-127037053D01*
X143927430Y-127060473D01*
X143848360Y-127086165D01*
X143839114Y-127087137D01*
X143835851Y-127088122D01*
X143744710Y-127097059D01*
X143707211Y-127101000D01*
X143612789Y-127101000D01*
X143471640Y-127086165D01*
X143390603Y-127059834D01*
X143303337Y-127032152D01*
X143300345Y-127030507D01*
X143291512Y-127027637D01*
X143219534Y-126986081D01*
X143148501Y-126947030D01*
X143141014Y-126940747D01*
X143127489Y-126932939D01*
X143069741Y-126880943D01*
X143013143Y-126833451D01*
X143003038Y-126820882D01*
X142986739Y-126806207D01*
X142944546Y-126748133D01*
X142902421Y-126695740D01*
X142892006Y-126675818D01*
X142875414Y-126652981D01*
X142848703Y-126592988D01*
X142820561Y-126539157D01*
X142812418Y-126511490D01*
X142798379Y-126479958D01*
X142786008Y-126421759D01*
X142770672Y-126369651D01*
X142767482Y-126334599D01*
X142759001Y-126294699D01*
X142759001Y-126241408D01*
X142754657Y-126193676D01*
X142759001Y-126152347D01*
X142759001Y-126105301D01*
X142768783Y-126059279D01*
X142773127Y-126017953D01*
X142787298Y-125972173D01*
X142798379Y-125920042D01*
X142814972Y-125882774D01*
X142825378Y-125849157D01*
X142851211Y-125801380D01*
X142875414Y-125747019D01*
X142895702Y-125719095D01*
X142909420Y-125693724D01*
X142948141Y-125646918D01*
X142986739Y-125593793D01*
X143007716Y-125574905D01*
X143022048Y-125557581D01*
X143074155Y-125515083D01*
X143127489Y-125467061D01*
X143146476Y-125456099D01*
X143158975Y-125445905D01*
X143224220Y-125411214D01*
X143291512Y-125372363D01*
X143306364Y-125367537D01*
X143314997Y-125362947D01*
X143392570Y-125339527D01*
X143471640Y-125313835D01*
X143480886Y-125312863D01*
X143484149Y-125311878D01*
X143575290Y-125302941D01*
X143612789Y-125299000D01*
X143707211Y-125299000D01*
X143848360Y-125313835D01*
X143848360Y-125313835D01*
G37*
G36*
X146388360Y-125313835D02*
G01*
X146469397Y-125340166D01*
X146556663Y-125367848D01*
X146559655Y-125369493D01*
X146568488Y-125372363D01*
X146640466Y-125413919D01*
X146711499Y-125452970D01*
X146718986Y-125459253D01*
X146732511Y-125467061D01*
X146790259Y-125519057D01*
X146846857Y-125566549D01*
X146856962Y-125579118D01*
X146873261Y-125593793D01*
X146915454Y-125651867D01*
X146957579Y-125704260D01*
X146967994Y-125724182D01*
X146984586Y-125747019D01*
X147011297Y-125807012D01*
X147039439Y-125860843D01*
X147047582Y-125888510D01*
X147061621Y-125920042D01*
X147073992Y-125978241D01*
X147089328Y-126030349D01*
X147092518Y-126065401D01*
X147100999Y-126105301D01*
X147100999Y-126158592D01*
X147105343Y-126206324D01*
X147100999Y-126247653D01*
X147100999Y-126294699D01*
X147091217Y-126340721D01*
X147086873Y-126382047D01*
X147072702Y-126427827D01*
X147061621Y-126479958D01*
X147045028Y-126517226D01*
X147034622Y-126550843D01*
X147008789Y-126598620D01*
X146984586Y-126652981D01*
X146964298Y-126680905D01*
X146950580Y-126706276D01*
X146911859Y-126753082D01*
X146873261Y-126806207D01*
X146852284Y-126825095D01*
X146837952Y-126842419D01*
X146785845Y-126884917D01*
X146732511Y-126932939D01*
X146713524Y-126943901D01*
X146701025Y-126954095D01*
X146635780Y-126988786D01*
X146568488Y-127027637D01*
X146553636Y-127032463D01*
X146545003Y-127037053D01*
X146467430Y-127060473D01*
X146388360Y-127086165D01*
X146379114Y-127087137D01*
X146375851Y-127088122D01*
X146284710Y-127097059D01*
X146247211Y-127101000D01*
X146152789Y-127101000D01*
X146011640Y-127086165D01*
X145930603Y-127059834D01*
X145843337Y-127032152D01*
X145840345Y-127030507D01*
X145831512Y-127027637D01*
X145759534Y-126986081D01*
X145688501Y-126947030D01*
X145681014Y-126940747D01*
X145667489Y-126932939D01*
X145609741Y-126880943D01*
X145553143Y-126833451D01*
X145543038Y-126820882D01*
X145526739Y-126806207D01*
X145484546Y-126748133D01*
X145442421Y-126695740D01*
X145432006Y-126675818D01*
X145415414Y-126652981D01*
X145388703Y-126592988D01*
X145360561Y-126539157D01*
X145352418Y-126511490D01*
X145338379Y-126479958D01*
X145326008Y-126421759D01*
X145310672Y-126369651D01*
X145307482Y-126334599D01*
X145299001Y-126294699D01*
X145299001Y-126241408D01*
X145294657Y-126193676D01*
X145299001Y-126152347D01*
X145299001Y-126105301D01*
X145308783Y-126059279D01*
X145313127Y-126017953D01*
X145327298Y-125972173D01*
X145338379Y-125920042D01*
X145354972Y-125882774D01*
X145365378Y-125849157D01*
X145391211Y-125801380D01*
X145415414Y-125747019D01*
X145435702Y-125719095D01*
X145449420Y-125693724D01*
X145488141Y-125646918D01*
X145526739Y-125593793D01*
X145547716Y-125574905D01*
X145562048Y-125557581D01*
X145614155Y-125515083D01*
X145667489Y-125467061D01*
X145686476Y-125456099D01*
X145698975Y-125445905D01*
X145764220Y-125411214D01*
X145831512Y-125372363D01*
X145846364Y-125367537D01*
X145854997Y-125362947D01*
X145932570Y-125339527D01*
X146011640Y-125313835D01*
X146020886Y-125312863D01*
X146024149Y-125311878D01*
X146115290Y-125302941D01*
X146152789Y-125299000D01*
X146247211Y-125299000D01*
X146388360Y-125313835D01*
X146388360Y-125313835D01*
G37*
G36*
X148928360Y-125313835D02*
G01*
X149009397Y-125340166D01*
X149096663Y-125367848D01*
X149099655Y-125369493D01*
X149108488Y-125372363D01*
X149180466Y-125413919D01*
X149251499Y-125452970D01*
X149258986Y-125459253D01*
X149272511Y-125467061D01*
X149330259Y-125519057D01*
X149386857Y-125566549D01*
X149396962Y-125579118D01*
X149413261Y-125593793D01*
X149455454Y-125651867D01*
X149497579Y-125704260D01*
X149507994Y-125724182D01*
X149524586Y-125747019D01*
X149551297Y-125807012D01*
X149579439Y-125860843D01*
X149587582Y-125888510D01*
X149601621Y-125920042D01*
X149613992Y-125978241D01*
X149629328Y-126030349D01*
X149632518Y-126065401D01*
X149640999Y-126105301D01*
X149640999Y-126158592D01*
X149645343Y-126206324D01*
X149640999Y-126247653D01*
X149640999Y-126294699D01*
X149631217Y-126340721D01*
X149626873Y-126382047D01*
X149612702Y-126427827D01*
X149601621Y-126479958D01*
X149585028Y-126517226D01*
X149574622Y-126550843D01*
X149548789Y-126598620D01*
X149524586Y-126652981D01*
X149504298Y-126680905D01*
X149490580Y-126706276D01*
X149451859Y-126753082D01*
X149413261Y-126806207D01*
X149392284Y-126825095D01*
X149377952Y-126842419D01*
X149325845Y-126884917D01*
X149272511Y-126932939D01*
X149253524Y-126943901D01*
X149241025Y-126954095D01*
X149175780Y-126988786D01*
X149108488Y-127027637D01*
X149093636Y-127032463D01*
X149085003Y-127037053D01*
X149007430Y-127060473D01*
X148928360Y-127086165D01*
X148919114Y-127087137D01*
X148915851Y-127088122D01*
X148824710Y-127097059D01*
X148787211Y-127101000D01*
X148692789Y-127101000D01*
X148551640Y-127086165D01*
X148470603Y-127059834D01*
X148383337Y-127032152D01*
X148380345Y-127030507D01*
X148371512Y-127027637D01*
X148299534Y-126986081D01*
X148228501Y-126947030D01*
X148221014Y-126940747D01*
X148207489Y-126932939D01*
X148149741Y-126880943D01*
X148093143Y-126833451D01*
X148083038Y-126820882D01*
X148066739Y-126806207D01*
X148024546Y-126748133D01*
X147982421Y-126695740D01*
X147972006Y-126675818D01*
X147955414Y-126652981D01*
X147928703Y-126592988D01*
X147900561Y-126539157D01*
X147892418Y-126511490D01*
X147878379Y-126479958D01*
X147866008Y-126421759D01*
X147850672Y-126369651D01*
X147847482Y-126334599D01*
X147839001Y-126294699D01*
X147839001Y-126241408D01*
X147834657Y-126193676D01*
X147839001Y-126152347D01*
X147839001Y-126105301D01*
X147848783Y-126059279D01*
X147853127Y-126017953D01*
X147867298Y-125972173D01*
X147878379Y-125920042D01*
X147894972Y-125882774D01*
X147905378Y-125849157D01*
X147931211Y-125801380D01*
X147955414Y-125747019D01*
X147975702Y-125719095D01*
X147989420Y-125693724D01*
X148028141Y-125646918D01*
X148066739Y-125593793D01*
X148087716Y-125574905D01*
X148102048Y-125557581D01*
X148154155Y-125515083D01*
X148207489Y-125467061D01*
X148226476Y-125456099D01*
X148238975Y-125445905D01*
X148304220Y-125411214D01*
X148371512Y-125372363D01*
X148386364Y-125367537D01*
X148394997Y-125362947D01*
X148472570Y-125339527D01*
X148551640Y-125313835D01*
X148560886Y-125312863D01*
X148564149Y-125311878D01*
X148655290Y-125302941D01*
X148692789Y-125299000D01*
X148787211Y-125299000D01*
X148928360Y-125313835D01*
X148928360Y-125313835D01*
G37*
G36*
X159088360Y-125313835D02*
G01*
X159169397Y-125340166D01*
X159256663Y-125367848D01*
X159259655Y-125369493D01*
X159268488Y-125372363D01*
X159340466Y-125413919D01*
X159411499Y-125452970D01*
X159418986Y-125459253D01*
X159432511Y-125467061D01*
X159490259Y-125519057D01*
X159546857Y-125566549D01*
X159556962Y-125579118D01*
X159573261Y-125593793D01*
X159615454Y-125651867D01*
X159657579Y-125704260D01*
X159667994Y-125724182D01*
X159684586Y-125747019D01*
X159711297Y-125807012D01*
X159739439Y-125860843D01*
X159747582Y-125888510D01*
X159761621Y-125920042D01*
X159773992Y-125978241D01*
X159789328Y-126030349D01*
X159792518Y-126065401D01*
X159800999Y-126105301D01*
X159800999Y-126158592D01*
X159805343Y-126206324D01*
X159800999Y-126247653D01*
X159800999Y-126294699D01*
X159791217Y-126340721D01*
X159786873Y-126382047D01*
X159772702Y-126427827D01*
X159761621Y-126479958D01*
X159745028Y-126517226D01*
X159734622Y-126550843D01*
X159708789Y-126598620D01*
X159684586Y-126652981D01*
X159664298Y-126680905D01*
X159650580Y-126706276D01*
X159611859Y-126753082D01*
X159573261Y-126806207D01*
X159552284Y-126825095D01*
X159537952Y-126842419D01*
X159485845Y-126884917D01*
X159432511Y-126932939D01*
X159413524Y-126943901D01*
X159401025Y-126954095D01*
X159335780Y-126988786D01*
X159268488Y-127027637D01*
X159253636Y-127032463D01*
X159245003Y-127037053D01*
X159167430Y-127060473D01*
X159088360Y-127086165D01*
X159079114Y-127087137D01*
X159075851Y-127088122D01*
X158984710Y-127097059D01*
X158947211Y-127101000D01*
X158852789Y-127101000D01*
X158711640Y-127086165D01*
X158630603Y-127059834D01*
X158543337Y-127032152D01*
X158540345Y-127030507D01*
X158531512Y-127027637D01*
X158459534Y-126986081D01*
X158388501Y-126947030D01*
X158381014Y-126940747D01*
X158367489Y-126932939D01*
X158309741Y-126880943D01*
X158253143Y-126833451D01*
X158243038Y-126820882D01*
X158226739Y-126806207D01*
X158184546Y-126748133D01*
X158142421Y-126695740D01*
X158132006Y-126675818D01*
X158115414Y-126652981D01*
X158088703Y-126592988D01*
X158060561Y-126539157D01*
X158052418Y-126511490D01*
X158038379Y-126479958D01*
X158026008Y-126421759D01*
X158010672Y-126369651D01*
X158007482Y-126334599D01*
X157999001Y-126294699D01*
X157999001Y-126241408D01*
X157994657Y-126193676D01*
X157999001Y-126152347D01*
X157999001Y-126105301D01*
X158008783Y-126059279D01*
X158013127Y-126017953D01*
X158027298Y-125972173D01*
X158038379Y-125920042D01*
X158054972Y-125882774D01*
X158065378Y-125849157D01*
X158091211Y-125801380D01*
X158115414Y-125747019D01*
X158135702Y-125719095D01*
X158149420Y-125693724D01*
X158188141Y-125646918D01*
X158226739Y-125593793D01*
X158247716Y-125574905D01*
X158262048Y-125557581D01*
X158314155Y-125515083D01*
X158367489Y-125467061D01*
X158386476Y-125456099D01*
X158398975Y-125445905D01*
X158464220Y-125411214D01*
X158531512Y-125372363D01*
X158546364Y-125367537D01*
X158554997Y-125362947D01*
X158632570Y-125339527D01*
X158711640Y-125313835D01*
X158720886Y-125312863D01*
X158724149Y-125311878D01*
X158815290Y-125302941D01*
X158852789Y-125299000D01*
X158947211Y-125299000D01*
X159088360Y-125313835D01*
X159088360Y-125313835D01*
G37*
G36*
X148859370Y-119699252D02*
G01*
X148895133Y-119699501D01*
X148934576Y-119708752D01*
X148980476Y-119714551D01*
X149013743Y-119727321D01*
X149042781Y-119734132D01*
X149084527Y-119754493D01*
X149133227Y-119773187D01*
X149157628Y-119790146D01*
X149179101Y-119800619D01*
X149219936Y-119833451D01*
X149267582Y-119866566D01*
X149283308Y-119884403D01*
X149297292Y-119895647D01*
X149333538Y-119941378D01*
X149375784Y-119989297D01*
X149384051Y-120005111D01*
X149391497Y-120014505D01*
X149419303Y-120072541D01*
X149451588Y-120134296D01*
X149454425Y-120145846D01*
X149457027Y-120151277D01*
X149472666Y-120220110D01*
X149490616Y-120293191D01*
X149488754Y-120470949D01*
X149468779Y-120545499D01*
X149450530Y-120616574D01*
X149448868Y-120619808D01*
X149446407Y-120628992D01*
X149411742Y-120692047D01*
X149381206Y-120751463D01*
X149375033Y-120758820D01*
X149367583Y-120772371D01*
X149322763Y-120821113D01*
X149283720Y-120867642D01*
X149271327Y-120877049D01*
X149256834Y-120892810D01*
X149206536Y-120926228D01*
X149162917Y-120959337D01*
X149143333Y-120968221D01*
X149120554Y-120983355D01*
X149069254Y-121001824D01*
X149024802Y-121021988D01*
X148997915Y-121027507D01*
X148966609Y-121038778D01*
X148918246Y-121043861D01*
X148876240Y-121052484D01*
X148842859Y-121051785D01*
X148803887Y-121055881D01*
X148761553Y-121050082D01*
X148724609Y-121049308D01*
X148686449Y-121039794D01*
X148641783Y-121033675D01*
X148607553Y-121020123D01*
X148577454Y-121012618D01*
X148537052Y-120992210D01*
X148489655Y-120973444D01*
X148464470Y-120955546D01*
X148442086Y-120944239D01*
X148402636Y-120911603D01*
X148356285Y-120878663D01*
X148339966Y-120859757D01*
X148325227Y-120847564D01*
X148290356Y-120802283D01*
X148249374Y-120754805D01*
X148240734Y-120737848D01*
X148232691Y-120727404D01*
X148206196Y-120670064D01*
X148175093Y-120609020D01*
X148172106Y-120596285D01*
X148169079Y-120589734D01*
X148154677Y-120521978D01*
X148137730Y-120449725D01*
X148137805Y-120442599D01*
X148137546Y-120441382D01*
X148138633Y-120363483D01*
X148139444Y-120286116D01*
X148158403Y-120212275D01*
X148175325Y-120142329D01*
X148177474Y-120138001D01*
X148180134Y-120127639D01*
X148213598Y-120065230D01*
X148242758Y-120006487D01*
X148249581Y-119998121D01*
X148257452Y-119983442D01*
X148300983Y-119935095D01*
X148338614Y-119888955D01*
X148351812Y-119878643D01*
X148366933Y-119861850D01*
X148415903Y-119828570D01*
X148458126Y-119795582D01*
X148478667Y-119785916D01*
X148502259Y-119769883D01*
X148552237Y-119751296D01*
X148595349Y-119731009D01*
X148623327Y-119724858D01*
X148655615Y-119712850D01*
X148702750Y-119707396D01*
X148743473Y-119698443D01*
X148778045Y-119698684D01*
X148818149Y-119694044D01*
X148859370Y-119699252D01*
X148859370Y-119699252D01*
G37*
G36*
X143230204Y-116449252D02*
G01*
X143265967Y-116449501D01*
X143305410Y-116458752D01*
X143351310Y-116464551D01*
X143384577Y-116477321D01*
X143413615Y-116484132D01*
X143455361Y-116504493D01*
X143504061Y-116523187D01*
X143528462Y-116540146D01*
X143549935Y-116550619D01*
X143590770Y-116583451D01*
X143638416Y-116616566D01*
X143654142Y-116634403D01*
X143668126Y-116645647D01*
X143704372Y-116691378D01*
X143746618Y-116739297D01*
X143754885Y-116755111D01*
X143762331Y-116764505D01*
X143790137Y-116822541D01*
X143822422Y-116884296D01*
X143825259Y-116895846D01*
X143827861Y-116901277D01*
X143843500Y-116970110D01*
X143861450Y-117043191D01*
X143859588Y-117220949D01*
X143839613Y-117295499D01*
X143821364Y-117366574D01*
X143819702Y-117369808D01*
X143817241Y-117378992D01*
X143782576Y-117442047D01*
X143752040Y-117501463D01*
X143745867Y-117508820D01*
X143738417Y-117522371D01*
X143693597Y-117571113D01*
X143654554Y-117617642D01*
X143642161Y-117627049D01*
X143627668Y-117642810D01*
X143577370Y-117676228D01*
X143533751Y-117709337D01*
X143514167Y-117718221D01*
X143491388Y-117733355D01*
X143440088Y-117751824D01*
X143395636Y-117771988D01*
X143368749Y-117777507D01*
X143337443Y-117788778D01*
X143289080Y-117793861D01*
X143247074Y-117802484D01*
X143213693Y-117801785D01*
X143174721Y-117805881D01*
X143132387Y-117800082D01*
X143095443Y-117799308D01*
X143057283Y-117789794D01*
X143012617Y-117783675D01*
X142978387Y-117770123D01*
X142948288Y-117762618D01*
X142907886Y-117742210D01*
X142860489Y-117723444D01*
X142835304Y-117705546D01*
X142812920Y-117694239D01*
X142773470Y-117661603D01*
X142727119Y-117628663D01*
X142710800Y-117609757D01*
X142696061Y-117597564D01*
X142661190Y-117552283D01*
X142620208Y-117504805D01*
X142611568Y-117487848D01*
X142603525Y-117477404D01*
X142577030Y-117420064D01*
X142545927Y-117359020D01*
X142542940Y-117346285D01*
X142539913Y-117339734D01*
X142525511Y-117271978D01*
X142508564Y-117199725D01*
X142508639Y-117192599D01*
X142508380Y-117191382D01*
X142509467Y-117113483D01*
X142510278Y-117036116D01*
X142529237Y-116962275D01*
X142546159Y-116892329D01*
X142548308Y-116888001D01*
X142550968Y-116877639D01*
X142584432Y-116815230D01*
X142613592Y-116756487D01*
X142620415Y-116748121D01*
X142628286Y-116733442D01*
X142671817Y-116685095D01*
X142709448Y-116638955D01*
X142722646Y-116628643D01*
X142737767Y-116611850D01*
X142786737Y-116578570D01*
X142828960Y-116545582D01*
X142849501Y-116535916D01*
X142873093Y-116519883D01*
X142923071Y-116501296D01*
X142966183Y-116481009D01*
X142994161Y-116474858D01*
X143026449Y-116462850D01*
X143073584Y-116457396D01*
X143114307Y-116448443D01*
X143148879Y-116448684D01*
X143188983Y-116444044D01*
X143230204Y-116449252D01*
X143230204Y-116449252D01*
G37*
G36*
X148802976Y-112647826D02*
G01*
X148844766Y-112645782D01*
X148889056Y-112652639D01*
X148939810Y-112655476D01*
X148980163Y-112666743D01*
X149015621Y-112672232D01*
X149063204Y-112689928D01*
X149117898Y-112705199D01*
X149149622Y-112722067D01*
X149177659Y-112732494D01*
X149225757Y-112762549D01*
X149281153Y-112792004D01*
X149303968Y-112811421D01*
X149324271Y-112824108D01*
X149369641Y-112867313D01*
X149421961Y-112911841D01*
X149436463Y-112930947D01*
X149449472Y-112943335D01*
X149488616Y-112999655D01*
X149533751Y-113059118D01*
X149541302Y-113075459D01*
X149548142Y-113085301D01*
X149577508Y-113153817D01*
X149611307Y-113226965D01*
X149613885Y-113238692D01*
X149616247Y-113244202D01*
X149632429Y-113323036D01*
X149651011Y-113407551D01*
X149650345Y-113598388D01*
X149631181Y-113682738D01*
X149614443Y-113761485D01*
X149612041Y-113766982D01*
X149609381Y-113778692D01*
X149575069Y-113851609D01*
X149545227Y-113919915D01*
X149538318Y-113929709D01*
X149530655Y-113945994D01*
X149485114Y-114005130D01*
X149445570Y-114061187D01*
X149432472Y-114073487D01*
X149417840Y-114092487D01*
X149365227Y-114136635D01*
X149319544Y-114179534D01*
X149299147Y-114192082D01*
X149276199Y-114211338D01*
X149220600Y-114240405D01*
X149172293Y-114270123D01*
X149144184Y-114280354D01*
X149112341Y-114297001D01*
X149057534Y-114311892D01*
X149009831Y-114329254D01*
X148974340Y-114334495D01*
X148933911Y-114345479D01*
X148883139Y-114347962D01*
X148838803Y-114354509D01*
X148797027Y-114352174D01*
X148749233Y-114354511D01*
X148704992Y-114347028D01*
X148666189Y-114344859D01*
X148619980Y-114332650D01*
X148566923Y-114323676D01*
X148530839Y-114309097D01*
X148499035Y-114300694D01*
X148450897Y-114276799D01*
X148395488Y-114254412D01*
X148368311Y-114235804D01*
X148344182Y-114223826D01*
X148297128Y-114187063D01*
X148242926Y-114149950D01*
X148224469Y-114130295D01*
X148207950Y-114117389D01*
X148165400Y-114067393D01*
X148116354Y-114015164D01*
X148105608Y-113997138D01*
X148095896Y-113985726D01*
X148061401Y-113922981D01*
X148021678Y-113856344D01*
X148016943Y-113842111D01*
X148012610Y-113834229D01*
X147989692Y-113760192D01*
X147963314Y-113680898D01*
X147962372Y-113671934D01*
X147961486Y-113669072D01*
X147953347Y-113586068D01*
X147943987Y-113497012D01*
X147953967Y-113408044D01*
X147962687Y-113325078D01*
X147963593Y-113322220D01*
X147964598Y-113313265D01*
X147991530Y-113234153D01*
X148014963Y-113160281D01*
X148019350Y-113152432D01*
X148024184Y-113138231D01*
X148064382Y-113071857D01*
X148099304Y-113009371D01*
X148109092Y-112998031D01*
X148119967Y-112980075D01*
X148169385Y-112928181D01*
X148212273Y-112878495D01*
X148228879Y-112865707D01*
X148247477Y-112846177D01*
X148301952Y-112809433D01*
X148349250Y-112773009D01*
X148373458Y-112761202D01*
X148400765Y-112742783D01*
X148456319Y-112720787D01*
X148504633Y-112697223D01*
X148536503Y-112689040D01*
X148572679Y-112674717D01*
X148625795Y-112666114D01*
X148672088Y-112654228D01*
X148710903Y-112652330D01*
X148755199Y-112645155D01*
X148802976Y-112647826D01*
X148802976Y-112647826D01*
G37*
G36*
X151919899Y-112651959D02*
G01*
X151936769Y-112663231D01*
X151948041Y-112680101D01*
X151954448Y-112712312D01*
X151954448Y-114287688D01*
X151951999Y-114300000D01*
X151948041Y-114319899D01*
X151936769Y-114336769D01*
X151919899Y-114348041D01*
X151900000Y-114351999D01*
X151887688Y-114354448D01*
X150312312Y-114354448D01*
X150280101Y-114348041D01*
X150263231Y-114336769D01*
X150251959Y-114319899D01*
X150245552Y-114287688D01*
X150245552Y-112712312D01*
X150251959Y-112680101D01*
X150263231Y-112663231D01*
X150280101Y-112651959D01*
X150312312Y-112645552D01*
X151887688Y-112645552D01*
X151919899Y-112651959D01*
X151919899Y-112651959D01*
G37*
G36*
X148923360Y-109713835D02*
G01*
X149004397Y-109740166D01*
X149091663Y-109767848D01*
X149094655Y-109769493D01*
X149103488Y-109772363D01*
X149175466Y-109813919D01*
X149246499Y-109852970D01*
X149253986Y-109859253D01*
X149267511Y-109867061D01*
X149325259Y-109919057D01*
X149381857Y-109966549D01*
X149391962Y-109979118D01*
X149408261Y-109993793D01*
X149450454Y-110051867D01*
X149492579Y-110104260D01*
X149502994Y-110124182D01*
X149519586Y-110147019D01*
X149546297Y-110207012D01*
X149574439Y-110260843D01*
X149582582Y-110288510D01*
X149596621Y-110320042D01*
X149608992Y-110378241D01*
X149624328Y-110430349D01*
X149627518Y-110465401D01*
X149635999Y-110505301D01*
X149635999Y-110558592D01*
X149640343Y-110606324D01*
X149635999Y-110647653D01*
X149635999Y-110694699D01*
X149626217Y-110740721D01*
X149621873Y-110782047D01*
X149607702Y-110827827D01*
X149596621Y-110879958D01*
X149580028Y-110917226D01*
X149569622Y-110950843D01*
X149543789Y-110998620D01*
X149519586Y-111052981D01*
X149499298Y-111080905D01*
X149485580Y-111106276D01*
X149446859Y-111153082D01*
X149408261Y-111206207D01*
X149387284Y-111225095D01*
X149372952Y-111242419D01*
X149320845Y-111284917D01*
X149267511Y-111332939D01*
X149248524Y-111343901D01*
X149236025Y-111354095D01*
X149170780Y-111388786D01*
X149103488Y-111427637D01*
X149088636Y-111432463D01*
X149080003Y-111437053D01*
X149002430Y-111460473D01*
X148923360Y-111486165D01*
X148914114Y-111487137D01*
X148910851Y-111488122D01*
X148819710Y-111497059D01*
X148782211Y-111501000D01*
X148687789Y-111501000D01*
X148546640Y-111486165D01*
X148465603Y-111459834D01*
X148378337Y-111432152D01*
X148375345Y-111430507D01*
X148366512Y-111427637D01*
X148294534Y-111386081D01*
X148223501Y-111347030D01*
X148216014Y-111340747D01*
X148202489Y-111332939D01*
X148144741Y-111280943D01*
X148088143Y-111233451D01*
X148078038Y-111220882D01*
X148061739Y-111206207D01*
X148019546Y-111148133D01*
X147977421Y-111095740D01*
X147967006Y-111075818D01*
X147950414Y-111052981D01*
X147923703Y-110992988D01*
X147895561Y-110939157D01*
X147887418Y-110911490D01*
X147873379Y-110879958D01*
X147861008Y-110821759D01*
X147845672Y-110769651D01*
X147842482Y-110734599D01*
X147834001Y-110694699D01*
X147834001Y-110641408D01*
X147829657Y-110593676D01*
X147834001Y-110552347D01*
X147834001Y-110505301D01*
X147843783Y-110459279D01*
X147848127Y-110417953D01*
X147862298Y-110372173D01*
X147873379Y-110320042D01*
X147889972Y-110282774D01*
X147900378Y-110249157D01*
X147926211Y-110201380D01*
X147950414Y-110147019D01*
X147970702Y-110119095D01*
X147984420Y-110093724D01*
X148023141Y-110046918D01*
X148061739Y-109993793D01*
X148082716Y-109974905D01*
X148097048Y-109957581D01*
X148149155Y-109915083D01*
X148202489Y-109867061D01*
X148221476Y-109856099D01*
X148233975Y-109845905D01*
X148299220Y-109811214D01*
X148366512Y-109772363D01*
X148381364Y-109767537D01*
X148389997Y-109762947D01*
X148467570Y-109739527D01*
X148546640Y-109713835D01*
X148555886Y-109712863D01*
X148559149Y-109711878D01*
X148650290Y-109702941D01*
X148687789Y-109699000D01*
X148782211Y-109699000D01*
X148923360Y-109713835D01*
X148923360Y-109713835D01*
G37*
G36*
X151463360Y-109713835D02*
G01*
X151544397Y-109740166D01*
X151631663Y-109767848D01*
X151634655Y-109769493D01*
X151643488Y-109772363D01*
X151715466Y-109813919D01*
X151786499Y-109852970D01*
X151793986Y-109859253D01*
X151807511Y-109867061D01*
X151865259Y-109919057D01*
X151921857Y-109966549D01*
X151931962Y-109979118D01*
X151948261Y-109993793D01*
X151990454Y-110051867D01*
X152032579Y-110104260D01*
X152042994Y-110124182D01*
X152059586Y-110147019D01*
X152086297Y-110207012D01*
X152114439Y-110260843D01*
X152122582Y-110288510D01*
X152136621Y-110320042D01*
X152148992Y-110378241D01*
X152164328Y-110430349D01*
X152167518Y-110465401D01*
X152175999Y-110505301D01*
X152175999Y-110558592D01*
X152180343Y-110606324D01*
X152175999Y-110647653D01*
X152175999Y-110694699D01*
X152166217Y-110740721D01*
X152161873Y-110782047D01*
X152147702Y-110827827D01*
X152136621Y-110879958D01*
X152120028Y-110917226D01*
X152109622Y-110950843D01*
X152083789Y-110998620D01*
X152059586Y-111052981D01*
X152039298Y-111080905D01*
X152025580Y-111106276D01*
X151986859Y-111153082D01*
X151948261Y-111206207D01*
X151927284Y-111225095D01*
X151912952Y-111242419D01*
X151860845Y-111284917D01*
X151807511Y-111332939D01*
X151788524Y-111343901D01*
X151776025Y-111354095D01*
X151710780Y-111388786D01*
X151643488Y-111427637D01*
X151628636Y-111432463D01*
X151620003Y-111437053D01*
X151542430Y-111460473D01*
X151463360Y-111486165D01*
X151454114Y-111487137D01*
X151450851Y-111488122D01*
X151359710Y-111497059D01*
X151322211Y-111501000D01*
X151227789Y-111501000D01*
X151086640Y-111486165D01*
X151005603Y-111459834D01*
X150918337Y-111432152D01*
X150915345Y-111430507D01*
X150906512Y-111427637D01*
X150834534Y-111386081D01*
X150763501Y-111347030D01*
X150756014Y-111340747D01*
X150742489Y-111332939D01*
X150684741Y-111280943D01*
X150628143Y-111233451D01*
X150618038Y-111220882D01*
X150601739Y-111206207D01*
X150559546Y-111148133D01*
X150517421Y-111095740D01*
X150507006Y-111075818D01*
X150490414Y-111052981D01*
X150463703Y-110992988D01*
X150435561Y-110939157D01*
X150427418Y-110911490D01*
X150413379Y-110879958D01*
X150401008Y-110821759D01*
X150385672Y-110769651D01*
X150382482Y-110734599D01*
X150374001Y-110694699D01*
X150374001Y-110641408D01*
X150369657Y-110593676D01*
X150374001Y-110552347D01*
X150374001Y-110505301D01*
X150383783Y-110459279D01*
X150388127Y-110417953D01*
X150402298Y-110372173D01*
X150413379Y-110320042D01*
X150429972Y-110282774D01*
X150440378Y-110249157D01*
X150466211Y-110201380D01*
X150490414Y-110147019D01*
X150510702Y-110119095D01*
X150524420Y-110093724D01*
X150563141Y-110046918D01*
X150601739Y-109993793D01*
X150622716Y-109974905D01*
X150637048Y-109957581D01*
X150689155Y-109915083D01*
X150742489Y-109867061D01*
X150761476Y-109856099D01*
X150773975Y-109845905D01*
X150839220Y-109811214D01*
X150906512Y-109772363D01*
X150921364Y-109767537D01*
X150929997Y-109762947D01*
X151007570Y-109739527D01*
X151086640Y-109713835D01*
X151095886Y-109712863D01*
X151099149Y-109711878D01*
X151190290Y-109702941D01*
X151227789Y-109699000D01*
X151322211Y-109699000D01*
X151463360Y-109713835D01*
X151463360Y-109713835D01*
G37*
G36*
X149604899Y-107161959D02*
G01*
X149621769Y-107173231D01*
X149633041Y-107190101D01*
X149639448Y-107222312D01*
X149639448Y-108897688D01*
X149636999Y-108910000D01*
X149633041Y-108929899D01*
X149621769Y-108946769D01*
X149604899Y-108958041D01*
X149585000Y-108961999D01*
X149572688Y-108964448D01*
X147897312Y-108964448D01*
X147865101Y-108958041D01*
X147848231Y-108946769D01*
X147836959Y-108929899D01*
X147830552Y-108897688D01*
X147830552Y-107222312D01*
X147836959Y-107190101D01*
X147848231Y-107173231D01*
X147865101Y-107161959D01*
X147897312Y-107155552D01*
X149572688Y-107155552D01*
X149604899Y-107161959D01*
X149604899Y-107161959D01*
G37*
G36*
X152144899Y-107161959D02*
G01*
X152161769Y-107173231D01*
X152173041Y-107190101D01*
X152179448Y-107222312D01*
X152179448Y-108897688D01*
X152176999Y-108910000D01*
X152173041Y-108929899D01*
X152161769Y-108946769D01*
X152144899Y-108958041D01*
X152125000Y-108961999D01*
X152112688Y-108964448D01*
X150437312Y-108964448D01*
X150405101Y-108958041D01*
X150388231Y-108946769D01*
X150376959Y-108929899D01*
X150370552Y-108897688D01*
X150370552Y-107222312D01*
X150376959Y-107190101D01*
X150388231Y-107173231D01*
X150405101Y-107161959D01*
X150437312Y-107155552D01*
X152112688Y-107155552D01*
X152144899Y-107161959D01*
X152144899Y-107161959D01*
G37*
G36*
X151353906Y-104051468D02*
G01*
X151405167Y-104054334D01*
X151428780Y-104060927D01*
X151462028Y-104065127D01*
X151510592Y-104083769D01*
X151551863Y-104095292D01*
X151581079Y-104110826D01*
X151620428Y-104125931D01*
X151656050Y-104150689D01*
X151686345Y-104166797D01*
X151718049Y-104193779D01*
X151759751Y-104222763D01*
X151782730Y-104248828D01*
X151802334Y-104265512D01*
X151832642Y-104305442D01*
X151871955Y-104350033D01*
X151884050Y-104373169D01*
X151894418Y-104386828D01*
X151918973Y-104439970D01*
X151950562Y-104500394D01*
X151954726Y-104517346D01*
X151958304Y-104525090D01*
X151972609Y-104590153D01*
X151991034Y-104665166D01*
X151990946Y-104673555D01*
X151990963Y-104673632D01*
X151990413Y-104831259D01*
X151989240Y-104836422D01*
X151989103Y-104849497D01*
X151970469Y-104919043D01*
X151956717Y-104979569D01*
X151950989Y-104991741D01*
X151945190Y-105013385D01*
X151914750Y-105068754D01*
X151891867Y-105117384D01*
X151878406Y-105134864D01*
X151863451Y-105162066D01*
X151826569Y-105202175D01*
X151798939Y-105238053D01*
X151775465Y-105257750D01*
X151748606Y-105286959D01*
X151710418Y-105312331D01*
X151682263Y-105335956D01*
X151647531Y-105354113D01*
X151607286Y-105380852D01*
X151572268Y-105393460D01*
X151547287Y-105406519D01*
X151501257Y-105419025D01*
X151447648Y-105438326D01*
X151419225Y-105441313D01*
X151400308Y-105446453D01*
X151344223Y-105449196D01*
X151278908Y-105456061D01*
X151259165Y-105453357D01*
X151248178Y-105453894D01*
X151184658Y-105443150D01*
X151110809Y-105433034D01*
X151100338Y-105428888D01*
X151098007Y-105428494D01*
X151032694Y-105402106D01*
X150953055Y-105370575D01*
X150887799Y-105324200D01*
X150831117Y-105285388D01*
X150826966Y-105280968D01*
X150814754Y-105272289D01*
X150768539Y-105218749D01*
X150726855Y-105174360D01*
X150719337Y-105161749D01*
X150703888Y-105143851D01*
X150675766Y-105088658D01*
X150648865Y-105043532D01*
X150641515Y-105021437D01*
X150626860Y-104992675D01*
X150614698Y-104940822D01*
X150600790Y-104899013D01*
X150597460Y-104867326D01*
X150588116Y-104827489D01*
X150588583Y-104782871D01*
X150584870Y-104747540D01*
X150589374Y-104707384D01*
X150589893Y-104657829D01*
X150598841Y-104622979D01*
X150601847Y-104596179D01*
X150617613Y-104549867D01*
X150632088Y-104493491D01*
X150645008Y-104469395D01*
X150650930Y-104452000D01*
X150680632Y-104402956D01*
X150712265Y-104343961D01*
X150724776Y-104330066D01*
X150729832Y-104321718D01*
X150775009Y-104274278D01*
X150825796Y-104217873D01*
X150834088Y-104212237D01*
X150834865Y-104211422D01*
X150891438Y-104173263D01*
X150966126Y-104122505D01*
X151039784Y-104095112D01*
X151102747Y-104070183D01*
X151109953Y-104069016D01*
X151125153Y-104063363D01*
X151194133Y-104055382D01*
X151253096Y-104045832D01*
X151268990Y-104046721D01*
X151293697Y-104043862D01*
X151353906Y-104051468D01*
X151353906Y-104051468D01*
G37*
G36*
X150083906Y-102781468D02*
G01*
X150135167Y-102784334D01*
X150158780Y-102790927D01*
X150192028Y-102795127D01*
X150240592Y-102813769D01*
X150281863Y-102825292D01*
X150311079Y-102840826D01*
X150350428Y-102855931D01*
X150386050Y-102880689D01*
X150416345Y-102896797D01*
X150448049Y-102923779D01*
X150489751Y-102952763D01*
X150512730Y-102978828D01*
X150532334Y-102995512D01*
X150562642Y-103035442D01*
X150601955Y-103080033D01*
X150614050Y-103103169D01*
X150624418Y-103116828D01*
X150648973Y-103169970D01*
X150680562Y-103230394D01*
X150684726Y-103247346D01*
X150688304Y-103255090D01*
X150702609Y-103320153D01*
X150721034Y-103395166D01*
X150720946Y-103403555D01*
X150720963Y-103403632D01*
X150720413Y-103561259D01*
X150719240Y-103566422D01*
X150719103Y-103579497D01*
X150700469Y-103649043D01*
X150686717Y-103709569D01*
X150680989Y-103721741D01*
X150675190Y-103743385D01*
X150644750Y-103798754D01*
X150621867Y-103847384D01*
X150608406Y-103864864D01*
X150593451Y-103892066D01*
X150556569Y-103932175D01*
X150528939Y-103968053D01*
X150505465Y-103987750D01*
X150478606Y-104016959D01*
X150440418Y-104042331D01*
X150412263Y-104065956D01*
X150377531Y-104084113D01*
X150337286Y-104110852D01*
X150302268Y-104123460D01*
X150277287Y-104136519D01*
X150231257Y-104149025D01*
X150177648Y-104168326D01*
X150149225Y-104171313D01*
X150130308Y-104176453D01*
X150074223Y-104179196D01*
X150008908Y-104186061D01*
X149989165Y-104183357D01*
X149978178Y-104183894D01*
X149914658Y-104173150D01*
X149840809Y-104163034D01*
X149830338Y-104158888D01*
X149828007Y-104158494D01*
X149762762Y-104132133D01*
X149683055Y-104100575D01*
X149647894Y-104075588D01*
X149583096Y-104054487D01*
X149514966Y-104072349D01*
X149467308Y-104124210D01*
X149454448Y-104179433D01*
X149454448Y-105387688D01*
X149451999Y-105400000D01*
X149448041Y-105419899D01*
X149436769Y-105436769D01*
X149419899Y-105448041D01*
X149400000Y-105451999D01*
X149387688Y-105454448D01*
X148112312Y-105454448D01*
X148080101Y-105448041D01*
X148063231Y-105436769D01*
X148051959Y-105419899D01*
X148045552Y-105387688D01*
X148045552Y-104112312D01*
X148051959Y-104080101D01*
X148063231Y-104063231D01*
X148080101Y-104051959D01*
X148112312Y-104045552D01*
X149320984Y-104045552D01*
X149388564Y-104025709D01*
X149434687Y-103972479D01*
X149444711Y-103902764D01*
X149434887Y-103875008D01*
X149433888Y-103873851D01*
X149405766Y-103818658D01*
X149378865Y-103773532D01*
X149371515Y-103751437D01*
X149356860Y-103722675D01*
X149344698Y-103670822D01*
X149330790Y-103629013D01*
X149327460Y-103597326D01*
X149318116Y-103557489D01*
X149318583Y-103512871D01*
X149314870Y-103477540D01*
X149319374Y-103437384D01*
X149319893Y-103387829D01*
X149328841Y-103352979D01*
X149331847Y-103326179D01*
X149347613Y-103279867D01*
X149362088Y-103223491D01*
X149375008Y-103199395D01*
X149380930Y-103182000D01*
X149410632Y-103132956D01*
X149442265Y-103073961D01*
X149454776Y-103060066D01*
X149459832Y-103051718D01*
X149505009Y-103004278D01*
X149555796Y-102947873D01*
X149564088Y-102942237D01*
X149564865Y-102941422D01*
X149621438Y-102903263D01*
X149696126Y-102852505D01*
X149769784Y-102825112D01*
X149832747Y-102800183D01*
X149839953Y-102799016D01*
X149855153Y-102793363D01*
X149924133Y-102785382D01*
X149983096Y-102775832D01*
X149998990Y-102776721D01*
X150023697Y-102773862D01*
X150083906Y-102781468D01*
X150083906Y-102781468D01*
G37*
G36*
X148194899Y-100376959D02*
G01*
X148211769Y-100388231D01*
X148223041Y-100405101D01*
X148229448Y-100437312D01*
X148229448Y-101762688D01*
X148226999Y-101775000D01*
X148223041Y-101794899D01*
X148211769Y-101811769D01*
X148194899Y-101823041D01*
X148175000Y-101826999D01*
X148162688Y-101829448D01*
X146837312Y-101829448D01*
X146805101Y-101823041D01*
X146788231Y-101811769D01*
X146776959Y-101794899D01*
X146770552Y-101762688D01*
X146770552Y-100437312D01*
X146776959Y-100405101D01*
X146788231Y-100388231D01*
X146805101Y-100376959D01*
X146837312Y-100370552D01*
X148162688Y-100370552D01*
X148194899Y-100376959D01*
X148194899Y-100376959D01*
G37*
G36*
X153194899Y-100376959D02*
G01*
X153211769Y-100388231D01*
X153223041Y-100405101D01*
X153229448Y-100437312D01*
X153229448Y-101762688D01*
X153226999Y-101775000D01*
X153223041Y-101794899D01*
X153211769Y-101811769D01*
X153194899Y-101823041D01*
X153175000Y-101826999D01*
X153162688Y-101829448D01*
X151837312Y-101829448D01*
X151805101Y-101823041D01*
X151788231Y-101811769D01*
X151776959Y-101794899D01*
X151770552Y-101762688D01*
X151770552Y-100437312D01*
X151776959Y-100405101D01*
X151788231Y-100388231D01*
X151805101Y-100376959D01*
X151837312Y-100370552D01*
X153162688Y-100370552D01*
X153194899Y-100376959D01*
X153194899Y-100376959D01*
G37*
G36*
X154613072Y-100389403D02*
G01*
X154738559Y-100410177D01*
X154744859Y-100413115D01*
X154754786Y-100414901D01*
X154818932Y-100447656D01*
X154878305Y-100475342D01*
X154888668Y-100483265D01*
X154905559Y-100491890D01*
X154956012Y-100534753D01*
X155003615Y-100571148D01*
X155015739Y-100585495D01*
X155034577Y-100601499D01*
X155070403Y-100650180D01*
X155105432Y-100691632D01*
X155116862Y-100713312D01*
X155134919Y-100737848D01*
X155156336Y-100788182D01*
X155178999Y-100831166D01*
X155187026Y-100860307D01*
X155201203Y-100893625D01*
X155209493Y-100941873D01*
X155220888Y-100983240D01*
X155222769Y-101019134D01*
X155229872Y-101060472D01*
X155227196Y-101103610D01*
X155229143Y-101140765D01*
X155222343Y-101181845D01*
X155219390Y-101229439D01*
X155208526Y-101265310D01*
X155203381Y-101296388D01*
X155185802Y-101340339D01*
X155170318Y-101391462D01*
X155154375Y-101418909D01*
X155144800Y-101442849D01*
X155115003Y-101486694D01*
X155085288Y-101537852D01*
X155067411Y-101556723D01*
X155056138Y-101573311D01*
X155013504Y-101613628D01*
X154968862Y-101660753D01*
X154951937Y-101671850D01*
X154941529Y-101681692D01*
X154886421Y-101714804D01*
X154827286Y-101753575D01*
X154813669Y-101758518D01*
X154806319Y-101762934D01*
X154740208Y-101785183D01*
X154668153Y-101811337D01*
X154659489Y-101812347D01*
X154656818Y-101813246D01*
X154582939Y-101821272D01*
X154542388Y-101826000D01*
X154472533Y-101826000D01*
X154386928Y-101810597D01*
X154261441Y-101789823D01*
X154255141Y-101786885D01*
X154245214Y-101785099D01*
X154181068Y-101752344D01*
X154121695Y-101724658D01*
X154111332Y-101716735D01*
X154094441Y-101708110D01*
X154043988Y-101665247D01*
X153996385Y-101628852D01*
X153984261Y-101614505D01*
X153965423Y-101598501D01*
X153929597Y-101549820D01*
X153894568Y-101508368D01*
X153883138Y-101486688D01*
X153865081Y-101462152D01*
X153843664Y-101411818D01*
X153821001Y-101368834D01*
X153812974Y-101339693D01*
X153798797Y-101306375D01*
X153790507Y-101258127D01*
X153779112Y-101216760D01*
X153777231Y-101180866D01*
X153770128Y-101139528D01*
X153772804Y-101096390D01*
X153770857Y-101059235D01*
X153777657Y-101018155D01*
X153780610Y-100970561D01*
X153791474Y-100934690D01*
X153796619Y-100903612D01*
X153814198Y-100859661D01*
X153829682Y-100808538D01*
X153845625Y-100781091D01*
X153855200Y-100757151D01*
X153884997Y-100713306D01*
X153914712Y-100662148D01*
X153932589Y-100643277D01*
X153943862Y-100626689D01*
X153986496Y-100586372D01*
X154031138Y-100539247D01*
X154048063Y-100528150D01*
X154058471Y-100518308D01*
X154113579Y-100485196D01*
X154172714Y-100446425D01*
X154186331Y-100441482D01*
X154193681Y-100437066D01*
X154259792Y-100414817D01*
X154331847Y-100388663D01*
X154340511Y-100387653D01*
X154343182Y-100386754D01*
X154417061Y-100378728D01*
X154457612Y-100374000D01*
X154527467Y-100374000D01*
X154613072Y-100389403D01*
X154613072Y-100389403D01*
G37*
G36*
X145613072Y-100389403D02*
G01*
X145738559Y-100410177D01*
X145744859Y-100413115D01*
X145754786Y-100414901D01*
X145818932Y-100447656D01*
X145878305Y-100475342D01*
X145888668Y-100483265D01*
X145905559Y-100491890D01*
X145956012Y-100534753D01*
X146003615Y-100571148D01*
X146015739Y-100585495D01*
X146034577Y-100601499D01*
X146070403Y-100650180D01*
X146105432Y-100691632D01*
X146116862Y-100713312D01*
X146134919Y-100737848D01*
X146156336Y-100788182D01*
X146178999Y-100831166D01*
X146187026Y-100860307D01*
X146201203Y-100893625D01*
X146209493Y-100941873D01*
X146220888Y-100983240D01*
X146222769Y-101019134D01*
X146229872Y-101060472D01*
X146227196Y-101103610D01*
X146229143Y-101140765D01*
X146222343Y-101181845D01*
X146219390Y-101229439D01*
X146208526Y-101265310D01*
X146203381Y-101296388D01*
X146185802Y-101340339D01*
X146170318Y-101391462D01*
X146154375Y-101418909D01*
X146144800Y-101442849D01*
X146115003Y-101486694D01*
X146085288Y-101537852D01*
X146067411Y-101556723D01*
X146056138Y-101573311D01*
X146013504Y-101613628D01*
X145968862Y-101660753D01*
X145951937Y-101671850D01*
X145941529Y-101681692D01*
X145886421Y-101714804D01*
X145827286Y-101753575D01*
X145813669Y-101758518D01*
X145806319Y-101762934D01*
X145740208Y-101785183D01*
X145668153Y-101811337D01*
X145659489Y-101812347D01*
X145656818Y-101813246D01*
X145582939Y-101821272D01*
X145542388Y-101826000D01*
X145472533Y-101826000D01*
X145386928Y-101810597D01*
X145261441Y-101789823D01*
X145255141Y-101786885D01*
X145245214Y-101785099D01*
X145181068Y-101752344D01*
X145121695Y-101724658D01*
X145111332Y-101716735D01*
X145094441Y-101708110D01*
X145043988Y-101665247D01*
X144996385Y-101628852D01*
X144984261Y-101614505D01*
X144965423Y-101598501D01*
X144929597Y-101549820D01*
X144894568Y-101508368D01*
X144883138Y-101486688D01*
X144865081Y-101462152D01*
X144843664Y-101411818D01*
X144821001Y-101368834D01*
X144812974Y-101339693D01*
X144798797Y-101306375D01*
X144790507Y-101258127D01*
X144779112Y-101216760D01*
X144777231Y-101180866D01*
X144770128Y-101139528D01*
X144772804Y-101096390D01*
X144770857Y-101059235D01*
X144777657Y-101018155D01*
X144780610Y-100970561D01*
X144791474Y-100934690D01*
X144796619Y-100903612D01*
X144814198Y-100859661D01*
X144829682Y-100808538D01*
X144845625Y-100781091D01*
X144855200Y-100757151D01*
X144884997Y-100713306D01*
X144914712Y-100662148D01*
X144932589Y-100643277D01*
X144943862Y-100626689D01*
X144986496Y-100586372D01*
X145031138Y-100539247D01*
X145048063Y-100528150D01*
X145058471Y-100518308D01*
X145113579Y-100485196D01*
X145172714Y-100446425D01*
X145186331Y-100441482D01*
X145193681Y-100437066D01*
X145259792Y-100414817D01*
X145331847Y-100388663D01*
X145340511Y-100387653D01*
X145343182Y-100386754D01*
X145417061Y-100378728D01*
X145457612Y-100374000D01*
X145527467Y-100374000D01*
X145613072Y-100389403D01*
X145613072Y-100389403D01*
G37*
M02*
