G04 #@! TF.GenerationSoftware,KiCad,Pcbnew,5.99.0-unknown-c3175b4~86~ubuntu16.04.1*
G04 #@! TF.CreationDate,2019-12-09T10:27:28-08:00*
G04 #@! TF.ProjectId,wogglebug,776f6767-6c65-4627-9567-2e6b69636164,rev?*
G04 #@! TF.SameCoordinates,Original*
G04 #@! TF.FileFunction,Copper,L2,Bot*
G04 #@! TF.FilePolarity,Positive*
%FSLAX46Y46*%
G04 Gerber Fmt 4.6, Leading zero omitted, Abs format (unit mm)*
G04 Created by KiCad (PCBNEW 5.99.0-unknown-c3175b4~86~ubuntu16.04.1) date 2019-12-09 10:27:28*
%MOMM*%
%LPD*%
G04 APERTURE LIST*
%ADD10C,0.600000*%
%ADD11C,1.250000*%
%ADD12C,0.300000*%
%ADD13C,0.100000*%
%ADD14C,0.875000*%
%ADD15C,4.500000*%
%ADD16C,1.600000*%
%ADD17R,1.600000X1.600000*%
%ADD18O,1.350000X1.350000*%
%ADD19R,1.350000X1.350000*%
%ADD20R,1.700000X1.700000*%
%ADD21O,1.700000X1.700000*%
%ADD22R,1.200000X0.900000*%
%ADD23R,1.300000X1.300000*%
%ADD24C,1.300000*%
%ADD25R,1.060000X0.650000*%
%ADD26R,0.400000X0.650000*%
%ADD27R,2.800000X2.800000*%
%ADD28R,2.200000X2.800000*%
%ADD29C,1.800000*%
%ADD30R,1.800000X1.800000*%
%ADD31R,1.000000X2.510000*%
%ADD32C,0.975000*%
%ADD33C,0.150000*%
%ADD34C,0.500000*%
G04 APERTURE END LIST*
D10*
X147450000Y-139650000D03*
D11*
X143185417Y-117125000D03*
X148814583Y-120375000D03*
D12*
X156550000Y-138600000D03*
D13*
G36*
X157550000Y-138600000D02*
G01*
X157050000Y-139350000D01*
X156050000Y-139350000D01*
X156050000Y-137850000D01*
X157050000Y-137850000D01*
X157550000Y-138600000D01*
X157550000Y-138600000D01*
G37*
D12*
X158000000Y-138600000D03*
D13*
G36*
X158500000Y-139350000D02*
G01*
X157350000Y-139350000D01*
X157850000Y-138600000D01*
X157350000Y-137850000D01*
X158500000Y-137850000D01*
X158500000Y-139350000D01*
X158500000Y-139350000D01*
G37*
G36*
X156639962Y-140791651D02*
G01*
X156710930Y-140839070D01*
X156758349Y-140910038D01*
X156775000Y-140993750D01*
X156775000Y-141431250D01*
X156758349Y-141514962D01*
X156710930Y-141585930D01*
X156639962Y-141633349D01*
X156556250Y-141650000D01*
X156043750Y-141650000D01*
X155960038Y-141633349D01*
X155889070Y-141585930D01*
X155841651Y-141514962D01*
X155825000Y-141431250D01*
X155825000Y-140993750D01*
X155841651Y-140910038D01*
X155889070Y-140839070D01*
X155960038Y-140791651D01*
X156043750Y-140775000D01*
X156556250Y-140775000D01*
X156639962Y-140791651D01*
X156639962Y-140791651D01*
G37*
D14*
X156300000Y-141212500D03*
D13*
G36*
X156639962Y-142366651D02*
G01*
X156710930Y-142414070D01*
X156758349Y-142485038D01*
X156775000Y-142568750D01*
X156775000Y-143006250D01*
X156758349Y-143089962D01*
X156710930Y-143160930D01*
X156639962Y-143208349D01*
X156556250Y-143225000D01*
X156043750Y-143225000D01*
X155960038Y-143208349D01*
X155889070Y-143160930D01*
X155841651Y-143089962D01*
X155825000Y-143006250D01*
X155825000Y-142568750D01*
X155841651Y-142485038D01*
X155889070Y-142414070D01*
X155960038Y-142366651D01*
X156043750Y-142350000D01*
X156556250Y-142350000D01*
X156639962Y-142366651D01*
X156639962Y-142366651D01*
G37*
D14*
X156300000Y-142787500D03*
D15*
X157500000Y-134500000D03*
X157500000Y-169500000D03*
D13*
G36*
X148927462Y-122441651D02*
G01*
X148998430Y-122489070D01*
X149045849Y-122560038D01*
X149062500Y-122643750D01*
X149062500Y-123156250D01*
X149045849Y-123239962D01*
X148998430Y-123310930D01*
X148927462Y-123358349D01*
X148843750Y-123375000D01*
X148406250Y-123375000D01*
X148322538Y-123358349D01*
X148251570Y-123310930D01*
X148204151Y-123239962D01*
X148187500Y-123156250D01*
X148187500Y-122643750D01*
X148204151Y-122560038D01*
X148251570Y-122489070D01*
X148322538Y-122441651D01*
X148406250Y-122425000D01*
X148843750Y-122425000D01*
X148927462Y-122441651D01*
X148927462Y-122441651D01*
G37*
D14*
X148625000Y-122900000D03*
D13*
G36*
X150502462Y-122441651D02*
G01*
X150573430Y-122489070D01*
X150620849Y-122560038D01*
X150637500Y-122643750D01*
X150637500Y-123156250D01*
X150620849Y-123239962D01*
X150573430Y-123310930D01*
X150502462Y-123358349D01*
X150418750Y-123375000D01*
X149981250Y-123375000D01*
X149897538Y-123358349D01*
X149826570Y-123310930D01*
X149779151Y-123239962D01*
X149762500Y-123156250D01*
X149762500Y-122643750D01*
X149779151Y-122560038D01*
X149826570Y-122489070D01*
X149897538Y-122441651D01*
X149981250Y-122425000D01*
X150418750Y-122425000D01*
X150502462Y-122441651D01*
X150502462Y-122441651D01*
G37*
D14*
X150200000Y-122900000D03*
D13*
G36*
X145014962Y-104841651D02*
G01*
X145085930Y-104889070D01*
X145133349Y-104960038D01*
X145150000Y-105043750D01*
X145150000Y-105556250D01*
X145133349Y-105639962D01*
X145085930Y-105710930D01*
X145014962Y-105758349D01*
X144931250Y-105775000D01*
X144493750Y-105775000D01*
X144410038Y-105758349D01*
X144339070Y-105710930D01*
X144291651Y-105639962D01*
X144275000Y-105556250D01*
X144275000Y-105043750D01*
X144291651Y-104960038D01*
X144339070Y-104889070D01*
X144410038Y-104841651D01*
X144493750Y-104825000D01*
X144931250Y-104825000D01*
X145014962Y-104841651D01*
X145014962Y-104841651D01*
G37*
D14*
X144712500Y-105300000D03*
D13*
G36*
X146589962Y-104841651D02*
G01*
X146660930Y-104889070D01*
X146708349Y-104960038D01*
X146725000Y-105043750D01*
X146725000Y-105556250D01*
X146708349Y-105639962D01*
X146660930Y-105710930D01*
X146589962Y-105758349D01*
X146506250Y-105775000D01*
X146068750Y-105775000D01*
X145985038Y-105758349D01*
X145914070Y-105710930D01*
X145866651Y-105639962D01*
X145850000Y-105556250D01*
X145850000Y-105043750D01*
X145866651Y-104960038D01*
X145914070Y-104889070D01*
X145985038Y-104841651D01*
X146068750Y-104825000D01*
X146506250Y-104825000D01*
X146589962Y-104841651D01*
X146589962Y-104841651D01*
G37*
D14*
X146287500Y-105300000D03*
D13*
G36*
X159109962Y-112341651D02*
G01*
X159180930Y-112389070D01*
X159228349Y-112460038D01*
X159245000Y-112543750D01*
X159245000Y-113056250D01*
X159228349Y-113139962D01*
X159180930Y-113210930D01*
X159109962Y-113258349D01*
X159026250Y-113275000D01*
X158588750Y-113275000D01*
X158505038Y-113258349D01*
X158434070Y-113210930D01*
X158386651Y-113139962D01*
X158370000Y-113056250D01*
X158370000Y-112543750D01*
X158386651Y-112460038D01*
X158434070Y-112389070D01*
X158505038Y-112341651D01*
X158588750Y-112325000D01*
X159026250Y-112325000D01*
X159109962Y-112341651D01*
X159109962Y-112341651D01*
G37*
D14*
X158807500Y-112800000D03*
D13*
G36*
X157534962Y-112341651D02*
G01*
X157605930Y-112389070D01*
X157653349Y-112460038D01*
X157670000Y-112543750D01*
X157670000Y-113056250D01*
X157653349Y-113139962D01*
X157605930Y-113210930D01*
X157534962Y-113258349D01*
X157451250Y-113275000D01*
X157013750Y-113275000D01*
X156930038Y-113258349D01*
X156859070Y-113210930D01*
X156811651Y-113139962D01*
X156795000Y-113056250D01*
X156795000Y-112543750D01*
X156811651Y-112460038D01*
X156859070Y-112389070D01*
X156930038Y-112341651D01*
X157013750Y-112325000D01*
X157451250Y-112325000D01*
X157534962Y-112341651D01*
X157534962Y-112341651D01*
G37*
D14*
X157232500Y-112800000D03*
D13*
G36*
X145014962Y-103241651D02*
G01*
X145085930Y-103289070D01*
X145133349Y-103360038D01*
X145150000Y-103443750D01*
X145150000Y-103956250D01*
X145133349Y-104039962D01*
X145085930Y-104110930D01*
X145014962Y-104158349D01*
X144931250Y-104175000D01*
X144493750Y-104175000D01*
X144410038Y-104158349D01*
X144339070Y-104110930D01*
X144291651Y-104039962D01*
X144275000Y-103956250D01*
X144275000Y-103443750D01*
X144291651Y-103360038D01*
X144339070Y-103289070D01*
X144410038Y-103241651D01*
X144493750Y-103225000D01*
X144931250Y-103225000D01*
X145014962Y-103241651D01*
X145014962Y-103241651D01*
G37*
D14*
X144712500Y-103700000D03*
D13*
G36*
X146589962Y-103241651D02*
G01*
X146660930Y-103289070D01*
X146708349Y-103360038D01*
X146725000Y-103443750D01*
X146725000Y-103956250D01*
X146708349Y-104039962D01*
X146660930Y-104110930D01*
X146589962Y-104158349D01*
X146506250Y-104175000D01*
X146068750Y-104175000D01*
X145985038Y-104158349D01*
X145914070Y-104110930D01*
X145866651Y-104039962D01*
X145850000Y-103956250D01*
X145850000Y-103443750D01*
X145866651Y-103360038D01*
X145914070Y-103289070D01*
X145985038Y-103241651D01*
X146068750Y-103225000D01*
X146506250Y-103225000D01*
X146589962Y-103241651D01*
X146589962Y-103241651D01*
G37*
D14*
X146287500Y-103700000D03*
D16*
X148800000Y-113500000D03*
D17*
X151100000Y-113500000D03*
D18*
X145500000Y-101100000D03*
D19*
X147500000Y-101100000D03*
D13*
G36*
X155189962Y-103841651D02*
G01*
X155260930Y-103889070D01*
X155308349Y-103960038D01*
X155325000Y-104043750D01*
X155325000Y-104556250D01*
X155308349Y-104639962D01*
X155260930Y-104710930D01*
X155189962Y-104758349D01*
X155106250Y-104775000D01*
X154668750Y-104775000D01*
X154585038Y-104758349D01*
X154514070Y-104710930D01*
X154466651Y-104639962D01*
X154450000Y-104556250D01*
X154450000Y-104043750D01*
X154466651Y-103960038D01*
X154514070Y-103889070D01*
X154585038Y-103841651D01*
X154668750Y-103825000D01*
X155106250Y-103825000D01*
X155189962Y-103841651D01*
X155189962Y-103841651D01*
G37*
D14*
X154887500Y-104300000D03*
D13*
G36*
X153614962Y-103841651D02*
G01*
X153685930Y-103889070D01*
X153733349Y-103960038D01*
X153750000Y-104043750D01*
X153750000Y-104556250D01*
X153733349Y-104639962D01*
X153685930Y-104710930D01*
X153614962Y-104758349D01*
X153531250Y-104775000D01*
X153093750Y-104775000D01*
X153010038Y-104758349D01*
X152939070Y-104710930D01*
X152891651Y-104639962D01*
X152875000Y-104556250D01*
X152875000Y-104043750D01*
X152891651Y-103960038D01*
X152939070Y-103889070D01*
X153010038Y-103841651D01*
X153093750Y-103825000D01*
X153531250Y-103825000D01*
X153614962Y-103841651D01*
X153614962Y-103841651D01*
G37*
D14*
X153312500Y-104300000D03*
D20*
X148735000Y-108060000D03*
D21*
X148735000Y-110600000D03*
D20*
X151275000Y-108060000D03*
D21*
X151275000Y-110600000D03*
D13*
G36*
X159109962Y-100691651D02*
G01*
X159180930Y-100739070D01*
X159228349Y-100810038D01*
X159245000Y-100893750D01*
X159245000Y-101406250D01*
X159228349Y-101489962D01*
X159180930Y-101560930D01*
X159109962Y-101608349D01*
X159026250Y-101625000D01*
X158588750Y-101625000D01*
X158505038Y-101608349D01*
X158434070Y-101560930D01*
X158386651Y-101489962D01*
X158370000Y-101406250D01*
X158370000Y-100893750D01*
X158386651Y-100810038D01*
X158434070Y-100739070D01*
X158505038Y-100691651D01*
X158588750Y-100675000D01*
X159026250Y-100675000D01*
X159109962Y-100691651D01*
X159109962Y-100691651D01*
G37*
D14*
X158807500Y-101150000D03*
D13*
G36*
X157534962Y-100691651D02*
G01*
X157605930Y-100739070D01*
X157653349Y-100810038D01*
X157670000Y-100893750D01*
X157670000Y-101406250D01*
X157653349Y-101489962D01*
X157605930Y-101560930D01*
X157534962Y-101608349D01*
X157451250Y-101625000D01*
X157013750Y-101625000D01*
X156930038Y-101608349D01*
X156859070Y-101560930D01*
X156811651Y-101489962D01*
X156795000Y-101406250D01*
X156795000Y-100893750D01*
X156811651Y-100810038D01*
X156859070Y-100739070D01*
X156930038Y-100691651D01*
X157013750Y-100675000D01*
X157451250Y-100675000D01*
X157534962Y-100691651D01*
X157534962Y-100691651D01*
G37*
D14*
X157232500Y-101150000D03*
D13*
G36*
X145214962Y-107041651D02*
G01*
X145285930Y-107089070D01*
X145333349Y-107160038D01*
X145350000Y-107243750D01*
X145350000Y-107756250D01*
X145333349Y-107839962D01*
X145285930Y-107910930D01*
X145214962Y-107958349D01*
X145131250Y-107975000D01*
X144693750Y-107975000D01*
X144610038Y-107958349D01*
X144539070Y-107910930D01*
X144491651Y-107839962D01*
X144475000Y-107756250D01*
X144475000Y-107243750D01*
X144491651Y-107160038D01*
X144539070Y-107089070D01*
X144610038Y-107041651D01*
X144693750Y-107025000D01*
X145131250Y-107025000D01*
X145214962Y-107041651D01*
X145214962Y-107041651D01*
G37*
D14*
X144912500Y-107500000D03*
D13*
G36*
X146789962Y-107041651D02*
G01*
X146860930Y-107089070D01*
X146908349Y-107160038D01*
X146925000Y-107243750D01*
X146925000Y-107756250D01*
X146908349Y-107839962D01*
X146860930Y-107910930D01*
X146789962Y-107958349D01*
X146706250Y-107975000D01*
X146268750Y-107975000D01*
X146185038Y-107958349D01*
X146114070Y-107910930D01*
X146066651Y-107839962D01*
X146050000Y-107756250D01*
X146050000Y-107243750D01*
X146066651Y-107160038D01*
X146114070Y-107089070D01*
X146185038Y-107041651D01*
X146268750Y-107025000D01*
X146706250Y-107025000D01*
X146789962Y-107041651D01*
X146789962Y-107041651D01*
G37*
D14*
X146487500Y-107500000D03*
D21*
X158900000Y-126200000D03*
X156360000Y-126200000D03*
X153820000Y-126200000D03*
X151280000Y-126200000D03*
X148740000Y-126200000D03*
X146200000Y-126200000D03*
X143660000Y-126200000D03*
D20*
X141120000Y-126200000D03*
D13*
G36*
X156714962Y-113841651D02*
G01*
X156785930Y-113889070D01*
X156833349Y-113960038D01*
X156850000Y-114043750D01*
X156850000Y-114556250D01*
X156833349Y-114639962D01*
X156785930Y-114710930D01*
X156714962Y-114758349D01*
X156631250Y-114775000D01*
X156193750Y-114775000D01*
X156110038Y-114758349D01*
X156039070Y-114710930D01*
X155991651Y-114639962D01*
X155975000Y-114556250D01*
X155975000Y-114043750D01*
X155991651Y-113960038D01*
X156039070Y-113889070D01*
X156110038Y-113841651D01*
X156193750Y-113825000D01*
X156631250Y-113825000D01*
X156714962Y-113841651D01*
X156714962Y-113841651D01*
G37*
D14*
X156412500Y-114300000D03*
D13*
G36*
X158289962Y-113841651D02*
G01*
X158360930Y-113889070D01*
X158408349Y-113960038D01*
X158425000Y-114043750D01*
X158425000Y-114556250D01*
X158408349Y-114639962D01*
X158360930Y-114710930D01*
X158289962Y-114758349D01*
X158206250Y-114775000D01*
X157768750Y-114775000D01*
X157685038Y-114758349D01*
X157614070Y-114710930D01*
X157566651Y-114639962D01*
X157550000Y-114556250D01*
X157550000Y-114043750D01*
X157566651Y-113960038D01*
X157614070Y-113889070D01*
X157685038Y-113841651D01*
X157768750Y-113825000D01*
X158206250Y-113825000D01*
X158289962Y-113841651D01*
X158289962Y-113841651D01*
G37*
D14*
X157987500Y-114300000D03*
D13*
G36*
X149514962Y-100741651D02*
G01*
X149585930Y-100789070D01*
X149633349Y-100860038D01*
X149650000Y-100943750D01*
X149650000Y-101456250D01*
X149633349Y-101539962D01*
X149585930Y-101610930D01*
X149514962Y-101658349D01*
X149431250Y-101675000D01*
X148993750Y-101675000D01*
X148910038Y-101658349D01*
X148839070Y-101610930D01*
X148791651Y-101539962D01*
X148775000Y-101456250D01*
X148775000Y-100943750D01*
X148791651Y-100860038D01*
X148839070Y-100789070D01*
X148910038Y-100741651D01*
X148993750Y-100725000D01*
X149431250Y-100725000D01*
X149514962Y-100741651D01*
X149514962Y-100741651D01*
G37*
D14*
X149212500Y-101200000D03*
D13*
G36*
X151089962Y-100741651D02*
G01*
X151160930Y-100789070D01*
X151208349Y-100860038D01*
X151225000Y-100943750D01*
X151225000Y-101456250D01*
X151208349Y-101539962D01*
X151160930Y-101610930D01*
X151089962Y-101658349D01*
X151006250Y-101675000D01*
X150568750Y-101675000D01*
X150485038Y-101658349D01*
X150414070Y-101610930D01*
X150366651Y-101539962D01*
X150350000Y-101456250D01*
X150350000Y-100943750D01*
X150366651Y-100860038D01*
X150414070Y-100789070D01*
X150485038Y-100741651D01*
X150568750Y-100725000D01*
X151006250Y-100725000D01*
X151089962Y-100741651D01*
X151089962Y-100741651D01*
G37*
D14*
X150787500Y-101200000D03*
D22*
X142600000Y-122750000D03*
X142600000Y-119450000D03*
D13*
G36*
X141595462Y-102271651D02*
G01*
X141666430Y-102319070D01*
X141713849Y-102390038D01*
X141730500Y-102473750D01*
X141730500Y-102986250D01*
X141713849Y-103069962D01*
X141666430Y-103140930D01*
X141595462Y-103188349D01*
X141511750Y-103205000D01*
X141074250Y-103205000D01*
X140990538Y-103188349D01*
X140919570Y-103140930D01*
X140872151Y-103069962D01*
X140855500Y-102986250D01*
X140855500Y-102473750D01*
X140872151Y-102390038D01*
X140919570Y-102319070D01*
X140990538Y-102271651D01*
X141074250Y-102255000D01*
X141511750Y-102255000D01*
X141595462Y-102271651D01*
X141595462Y-102271651D01*
G37*
D14*
X141293000Y-102730000D03*
D13*
G36*
X143170462Y-102271651D02*
G01*
X143241430Y-102319070D01*
X143288849Y-102390038D01*
X143305500Y-102473750D01*
X143305500Y-102986250D01*
X143288849Y-103069962D01*
X143241430Y-103140930D01*
X143170462Y-103188349D01*
X143086750Y-103205000D01*
X142649250Y-103205000D01*
X142565538Y-103188349D01*
X142494570Y-103140930D01*
X142447151Y-103069962D01*
X142430500Y-102986250D01*
X142430500Y-102473750D01*
X142447151Y-102390038D01*
X142494570Y-102319070D01*
X142565538Y-102271651D01*
X142649250Y-102255000D01*
X143086750Y-102255000D01*
X143170462Y-102271651D01*
X143170462Y-102271651D01*
G37*
D14*
X142868000Y-102730000D03*
D13*
G36*
X146789962Y-110041651D02*
G01*
X146860930Y-110089070D01*
X146908349Y-110160038D01*
X146925000Y-110243750D01*
X146925000Y-110756250D01*
X146908349Y-110839962D01*
X146860930Y-110910930D01*
X146789962Y-110958349D01*
X146706250Y-110975000D01*
X146268750Y-110975000D01*
X146185038Y-110958349D01*
X146114070Y-110910930D01*
X146066651Y-110839962D01*
X146050000Y-110756250D01*
X146050000Y-110243750D01*
X146066651Y-110160038D01*
X146114070Y-110089070D01*
X146185038Y-110041651D01*
X146268750Y-110025000D01*
X146706250Y-110025000D01*
X146789962Y-110041651D01*
X146789962Y-110041651D01*
G37*
D14*
X146487500Y-110500000D03*
D13*
G36*
X145214962Y-110041651D02*
G01*
X145285930Y-110089070D01*
X145333349Y-110160038D01*
X145350000Y-110243750D01*
X145350000Y-110756250D01*
X145333349Y-110839962D01*
X145285930Y-110910930D01*
X145214962Y-110958349D01*
X145131250Y-110975000D01*
X144693750Y-110975000D01*
X144610038Y-110958349D01*
X144539070Y-110910930D01*
X144491651Y-110839962D01*
X144475000Y-110756250D01*
X144475000Y-110243750D01*
X144491651Y-110160038D01*
X144539070Y-110089070D01*
X144610038Y-110041651D01*
X144693750Y-110025000D01*
X145131250Y-110025000D01*
X145214962Y-110041651D01*
X145214962Y-110041651D01*
G37*
D14*
X144912500Y-110500000D03*
D13*
G36*
X153657403Y-115601418D02*
G01*
X153706066Y-115633934D01*
X153738582Y-115682597D01*
X153750000Y-115740000D01*
X153750000Y-116040000D01*
X153738582Y-116097403D01*
X153706066Y-116146066D01*
X153657403Y-116178582D01*
X153600000Y-116190000D01*
X151950000Y-116190000D01*
X151892597Y-116178582D01*
X151843934Y-116146066D01*
X151811418Y-116097403D01*
X151800000Y-116040000D01*
X151800000Y-115740000D01*
X151811418Y-115682597D01*
X151843934Y-115633934D01*
X151892597Y-115601418D01*
X151950000Y-115590000D01*
X153600000Y-115590000D01*
X153657403Y-115601418D01*
X153657403Y-115601418D01*
G37*
D10*
X152775000Y-115890000D03*
D13*
G36*
X153657403Y-116871418D02*
G01*
X153706066Y-116903934D01*
X153738582Y-116952597D01*
X153750000Y-117010000D01*
X153750000Y-117310000D01*
X153738582Y-117367403D01*
X153706066Y-117416066D01*
X153657403Y-117448582D01*
X153600000Y-117460000D01*
X151950000Y-117460000D01*
X151892597Y-117448582D01*
X151843934Y-117416066D01*
X151811418Y-117367403D01*
X151800000Y-117310000D01*
X151800000Y-117010000D01*
X151811418Y-116952597D01*
X151843934Y-116903934D01*
X151892597Y-116871418D01*
X151950000Y-116860000D01*
X153600000Y-116860000D01*
X153657403Y-116871418D01*
X153657403Y-116871418D01*
G37*
D10*
X152775000Y-117160000D03*
D13*
G36*
X153657403Y-118141418D02*
G01*
X153706066Y-118173934D01*
X153738582Y-118222597D01*
X153750000Y-118280000D01*
X153750000Y-118580000D01*
X153738582Y-118637403D01*
X153706066Y-118686066D01*
X153657403Y-118718582D01*
X153600000Y-118730000D01*
X151950000Y-118730000D01*
X151892597Y-118718582D01*
X151843934Y-118686066D01*
X151811418Y-118637403D01*
X151800000Y-118580000D01*
X151800000Y-118280000D01*
X151811418Y-118222597D01*
X151843934Y-118173934D01*
X151892597Y-118141418D01*
X151950000Y-118130000D01*
X153600000Y-118130000D01*
X153657403Y-118141418D01*
X153657403Y-118141418D01*
G37*
D10*
X152775000Y-118430000D03*
D13*
G36*
X153657403Y-119411418D02*
G01*
X153706066Y-119443934D01*
X153738582Y-119492597D01*
X153750000Y-119550000D01*
X153750000Y-119850000D01*
X153738582Y-119907403D01*
X153706066Y-119956066D01*
X153657403Y-119988582D01*
X153600000Y-120000000D01*
X151950000Y-120000000D01*
X151892597Y-119988582D01*
X151843934Y-119956066D01*
X151811418Y-119907403D01*
X151800000Y-119850000D01*
X151800000Y-119550000D01*
X151811418Y-119492597D01*
X151843934Y-119443934D01*
X151892597Y-119411418D01*
X151950000Y-119400000D01*
X153600000Y-119400000D01*
X153657403Y-119411418D01*
X153657403Y-119411418D01*
G37*
D10*
X152775000Y-119700000D03*
D13*
G36*
X153657403Y-120681418D02*
G01*
X153706066Y-120713934D01*
X153738582Y-120762597D01*
X153750000Y-120820000D01*
X153750000Y-121120000D01*
X153738582Y-121177403D01*
X153706066Y-121226066D01*
X153657403Y-121258582D01*
X153600000Y-121270000D01*
X151950000Y-121270000D01*
X151892597Y-121258582D01*
X151843934Y-121226066D01*
X151811418Y-121177403D01*
X151800000Y-121120000D01*
X151800000Y-120820000D01*
X151811418Y-120762597D01*
X151843934Y-120713934D01*
X151892597Y-120681418D01*
X151950000Y-120670000D01*
X153600000Y-120670000D01*
X153657403Y-120681418D01*
X153657403Y-120681418D01*
G37*
D10*
X152775000Y-120970000D03*
D13*
G36*
X153657403Y-121951418D02*
G01*
X153706066Y-121983934D01*
X153738582Y-122032597D01*
X153750000Y-122090000D01*
X153750000Y-122390000D01*
X153738582Y-122447403D01*
X153706066Y-122496066D01*
X153657403Y-122528582D01*
X153600000Y-122540000D01*
X151950000Y-122540000D01*
X151892597Y-122528582D01*
X151843934Y-122496066D01*
X151811418Y-122447403D01*
X151800000Y-122390000D01*
X151800000Y-122090000D01*
X151811418Y-122032597D01*
X151843934Y-121983934D01*
X151892597Y-121951418D01*
X151950000Y-121940000D01*
X153600000Y-121940000D01*
X153657403Y-121951418D01*
X153657403Y-121951418D01*
G37*
D10*
X152775000Y-122240000D03*
D13*
G36*
X153657403Y-123221418D02*
G01*
X153706066Y-123253934D01*
X153738582Y-123302597D01*
X153750000Y-123360000D01*
X153750000Y-123660000D01*
X153738582Y-123717403D01*
X153706066Y-123766066D01*
X153657403Y-123798582D01*
X153600000Y-123810000D01*
X151950000Y-123810000D01*
X151892597Y-123798582D01*
X151843934Y-123766066D01*
X151811418Y-123717403D01*
X151800000Y-123660000D01*
X151800000Y-123360000D01*
X151811418Y-123302597D01*
X151843934Y-123253934D01*
X151892597Y-123221418D01*
X151950000Y-123210000D01*
X153600000Y-123210000D01*
X153657403Y-123221418D01*
X153657403Y-123221418D01*
G37*
D10*
X152775000Y-123510000D03*
D13*
G36*
X158607403Y-123221418D02*
G01*
X158656066Y-123253934D01*
X158688582Y-123302597D01*
X158700000Y-123360000D01*
X158700000Y-123660000D01*
X158688582Y-123717403D01*
X158656066Y-123766066D01*
X158607403Y-123798582D01*
X158550000Y-123810000D01*
X156900000Y-123810000D01*
X156842597Y-123798582D01*
X156793934Y-123766066D01*
X156761418Y-123717403D01*
X156750000Y-123660000D01*
X156750000Y-123360000D01*
X156761418Y-123302597D01*
X156793934Y-123253934D01*
X156842597Y-123221418D01*
X156900000Y-123210000D01*
X158550000Y-123210000D01*
X158607403Y-123221418D01*
X158607403Y-123221418D01*
G37*
D10*
X157725000Y-123510000D03*
D13*
G36*
X158607403Y-121951418D02*
G01*
X158656066Y-121983934D01*
X158688582Y-122032597D01*
X158700000Y-122090000D01*
X158700000Y-122390000D01*
X158688582Y-122447403D01*
X158656066Y-122496066D01*
X158607403Y-122528582D01*
X158550000Y-122540000D01*
X156900000Y-122540000D01*
X156842597Y-122528582D01*
X156793934Y-122496066D01*
X156761418Y-122447403D01*
X156750000Y-122390000D01*
X156750000Y-122090000D01*
X156761418Y-122032597D01*
X156793934Y-121983934D01*
X156842597Y-121951418D01*
X156900000Y-121940000D01*
X158550000Y-121940000D01*
X158607403Y-121951418D01*
X158607403Y-121951418D01*
G37*
D10*
X157725000Y-122240000D03*
D13*
G36*
X158607403Y-120681418D02*
G01*
X158656066Y-120713934D01*
X158688582Y-120762597D01*
X158700000Y-120820000D01*
X158700000Y-121120000D01*
X158688582Y-121177403D01*
X158656066Y-121226066D01*
X158607403Y-121258582D01*
X158550000Y-121270000D01*
X156900000Y-121270000D01*
X156842597Y-121258582D01*
X156793934Y-121226066D01*
X156761418Y-121177403D01*
X156750000Y-121120000D01*
X156750000Y-120820000D01*
X156761418Y-120762597D01*
X156793934Y-120713934D01*
X156842597Y-120681418D01*
X156900000Y-120670000D01*
X158550000Y-120670000D01*
X158607403Y-120681418D01*
X158607403Y-120681418D01*
G37*
D10*
X157725000Y-120970000D03*
D13*
G36*
X158607403Y-119411418D02*
G01*
X158656066Y-119443934D01*
X158688582Y-119492597D01*
X158700000Y-119550000D01*
X158700000Y-119850000D01*
X158688582Y-119907403D01*
X158656066Y-119956066D01*
X158607403Y-119988582D01*
X158550000Y-120000000D01*
X156900000Y-120000000D01*
X156842597Y-119988582D01*
X156793934Y-119956066D01*
X156761418Y-119907403D01*
X156750000Y-119850000D01*
X156750000Y-119550000D01*
X156761418Y-119492597D01*
X156793934Y-119443934D01*
X156842597Y-119411418D01*
X156900000Y-119400000D01*
X158550000Y-119400000D01*
X158607403Y-119411418D01*
X158607403Y-119411418D01*
G37*
D10*
X157725000Y-119700000D03*
D13*
G36*
X158607403Y-118141418D02*
G01*
X158656066Y-118173934D01*
X158688582Y-118222597D01*
X158700000Y-118280000D01*
X158700000Y-118580000D01*
X158688582Y-118637403D01*
X158656066Y-118686066D01*
X158607403Y-118718582D01*
X158550000Y-118730000D01*
X156900000Y-118730000D01*
X156842597Y-118718582D01*
X156793934Y-118686066D01*
X156761418Y-118637403D01*
X156750000Y-118580000D01*
X156750000Y-118280000D01*
X156761418Y-118222597D01*
X156793934Y-118173934D01*
X156842597Y-118141418D01*
X156900000Y-118130000D01*
X158550000Y-118130000D01*
X158607403Y-118141418D01*
X158607403Y-118141418D01*
G37*
D10*
X157725000Y-118430000D03*
D13*
G36*
X158607403Y-116871418D02*
G01*
X158656066Y-116903934D01*
X158688582Y-116952597D01*
X158700000Y-117010000D01*
X158700000Y-117310000D01*
X158688582Y-117367403D01*
X158656066Y-117416066D01*
X158607403Y-117448582D01*
X158550000Y-117460000D01*
X156900000Y-117460000D01*
X156842597Y-117448582D01*
X156793934Y-117416066D01*
X156761418Y-117367403D01*
X156750000Y-117310000D01*
X156750000Y-117010000D01*
X156761418Y-116952597D01*
X156793934Y-116903934D01*
X156842597Y-116871418D01*
X156900000Y-116860000D01*
X158550000Y-116860000D01*
X158607403Y-116871418D01*
X158607403Y-116871418D01*
G37*
D10*
X157725000Y-117160000D03*
D13*
G36*
X158607403Y-115601418D02*
G01*
X158656066Y-115633934D01*
X158688582Y-115682597D01*
X158700000Y-115740000D01*
X158700000Y-116040000D01*
X158688582Y-116097403D01*
X158656066Y-116146066D01*
X158607403Y-116178582D01*
X158550000Y-116190000D01*
X156900000Y-116190000D01*
X156842597Y-116178582D01*
X156793934Y-116146066D01*
X156761418Y-116097403D01*
X156750000Y-116040000D01*
X156750000Y-115740000D01*
X156761418Y-115682597D01*
X156793934Y-115633934D01*
X156842597Y-115601418D01*
X156900000Y-115590000D01*
X158550000Y-115590000D01*
X158607403Y-115601418D01*
X158607403Y-115601418D01*
G37*
D10*
X157725000Y-115890000D03*
D23*
X148750000Y-104750000D03*
D24*
X151290000Y-104750000D03*
X150020000Y-103480000D03*
D13*
G36*
X155189962Y-108341651D02*
G01*
X155260930Y-108389070D01*
X155308349Y-108460038D01*
X155325000Y-108543750D01*
X155325000Y-109056250D01*
X155308349Y-109139962D01*
X155260930Y-109210930D01*
X155189962Y-109258349D01*
X155106250Y-109275000D01*
X154668750Y-109275000D01*
X154585038Y-109258349D01*
X154514070Y-109210930D01*
X154466651Y-109139962D01*
X154450000Y-109056250D01*
X154450000Y-108543750D01*
X154466651Y-108460038D01*
X154514070Y-108389070D01*
X154585038Y-108341651D01*
X154668750Y-108325000D01*
X155106250Y-108325000D01*
X155189962Y-108341651D01*
X155189962Y-108341651D01*
G37*
D14*
X154887500Y-108800000D03*
D13*
G36*
X153614962Y-108341651D02*
G01*
X153685930Y-108389070D01*
X153733349Y-108460038D01*
X153750000Y-108543750D01*
X153750000Y-109056250D01*
X153733349Y-109139962D01*
X153685930Y-109210930D01*
X153614962Y-109258349D01*
X153531250Y-109275000D01*
X153093750Y-109275000D01*
X153010038Y-109258349D01*
X152939070Y-109210930D01*
X152891651Y-109139962D01*
X152875000Y-109056250D01*
X152875000Y-108543750D01*
X152891651Y-108460038D01*
X152939070Y-108389070D01*
X153010038Y-108341651D01*
X153093750Y-108325000D01*
X153531250Y-108325000D01*
X153614962Y-108341651D01*
X153614962Y-108341651D01*
G37*
D14*
X153312500Y-108800000D03*
D13*
G36*
X142695671Y-106794030D02*
G01*
X142776777Y-106848223D01*
X142830970Y-106929329D01*
X142850000Y-107025000D01*
X142850000Y-107775000D01*
X142830970Y-107870671D01*
X142776777Y-107951777D01*
X142695671Y-108005970D01*
X142600000Y-108025000D01*
X141350000Y-108025000D01*
X141254329Y-108005970D01*
X141173223Y-107951777D01*
X141119030Y-107870671D01*
X141100000Y-107775000D01*
X141100000Y-107025000D01*
X141119030Y-106929329D01*
X141173223Y-106848223D01*
X141254329Y-106794030D01*
X141350000Y-106775000D01*
X142600000Y-106775000D01*
X142695671Y-106794030D01*
X142695671Y-106794030D01*
G37*
D11*
X141975000Y-107400000D03*
D13*
G36*
X142695671Y-103994030D02*
G01*
X142776777Y-104048223D01*
X142830970Y-104129329D01*
X142850000Y-104225000D01*
X142850000Y-104975000D01*
X142830970Y-105070671D01*
X142776777Y-105151777D01*
X142695671Y-105205970D01*
X142600000Y-105225000D01*
X141350000Y-105225000D01*
X141254329Y-105205970D01*
X141173223Y-105151777D01*
X141119030Y-105070671D01*
X141100000Y-104975000D01*
X141100000Y-104225000D01*
X141119030Y-104129329D01*
X141173223Y-104048223D01*
X141254329Y-103994030D01*
X141350000Y-103975000D01*
X142600000Y-103975000D01*
X142695671Y-103994030D01*
X142695671Y-103994030D01*
G37*
D11*
X141975000Y-104600000D03*
D13*
G36*
X141595462Y-100771651D02*
G01*
X141666430Y-100819070D01*
X141713849Y-100890038D01*
X141730500Y-100973750D01*
X141730500Y-101486250D01*
X141713849Y-101569962D01*
X141666430Y-101640930D01*
X141595462Y-101688349D01*
X141511750Y-101705000D01*
X141074250Y-101705000D01*
X140990538Y-101688349D01*
X140919570Y-101640930D01*
X140872151Y-101569962D01*
X140855500Y-101486250D01*
X140855500Y-100973750D01*
X140872151Y-100890038D01*
X140919570Y-100819070D01*
X140990538Y-100771651D01*
X141074250Y-100755000D01*
X141511750Y-100755000D01*
X141595462Y-100771651D01*
X141595462Y-100771651D01*
G37*
D14*
X141293000Y-101230000D03*
D13*
G36*
X143170462Y-100771651D02*
G01*
X143241430Y-100819070D01*
X143288849Y-100890038D01*
X143305500Y-100973750D01*
X143305500Y-101486250D01*
X143288849Y-101569962D01*
X143241430Y-101640930D01*
X143170462Y-101688349D01*
X143086750Y-101705000D01*
X142649250Y-101705000D01*
X142565538Y-101688349D01*
X142494570Y-101640930D01*
X142447151Y-101569962D01*
X142430500Y-101486250D01*
X142430500Y-100973750D01*
X142447151Y-100890038D01*
X142494570Y-100819070D01*
X142565538Y-100771651D01*
X142649250Y-100755000D01*
X143086750Y-100755000D01*
X143170462Y-100771651D01*
X143170462Y-100771651D01*
G37*
D14*
X142868000Y-101230000D03*
D13*
G36*
X153614962Y-102341651D02*
G01*
X153685930Y-102389070D01*
X153733349Y-102460038D01*
X153750000Y-102543750D01*
X153750000Y-103056250D01*
X153733349Y-103139962D01*
X153685930Y-103210930D01*
X153614962Y-103258349D01*
X153531250Y-103275000D01*
X153093750Y-103275000D01*
X153010038Y-103258349D01*
X152939070Y-103210930D01*
X152891651Y-103139962D01*
X152875000Y-103056250D01*
X152875000Y-102543750D01*
X152891651Y-102460038D01*
X152939070Y-102389070D01*
X153010038Y-102341651D01*
X153093750Y-102325000D01*
X153531250Y-102325000D01*
X153614962Y-102341651D01*
X153614962Y-102341651D01*
G37*
D14*
X153312500Y-102800000D03*
D13*
G36*
X155189962Y-102341651D02*
G01*
X155260930Y-102389070D01*
X155308349Y-102460038D01*
X155325000Y-102543750D01*
X155325000Y-103056250D01*
X155308349Y-103139962D01*
X155260930Y-103210930D01*
X155189962Y-103258349D01*
X155106250Y-103275000D01*
X154668750Y-103275000D01*
X154585038Y-103258349D01*
X154514070Y-103210930D01*
X154466651Y-103139962D01*
X154450000Y-103056250D01*
X154450000Y-102543750D01*
X154466651Y-102460038D01*
X154514070Y-102389070D01*
X154585038Y-102341651D01*
X154668750Y-102325000D01*
X155106250Y-102325000D01*
X155189962Y-102341651D01*
X155189962Y-102341651D01*
G37*
D14*
X154887500Y-102800000D03*
D18*
X154500000Y-101100000D03*
D19*
X152500000Y-101100000D03*
D13*
G36*
X157534962Y-102191651D02*
G01*
X157605930Y-102239070D01*
X157653349Y-102310038D01*
X157670000Y-102393750D01*
X157670000Y-102906250D01*
X157653349Y-102989962D01*
X157605930Y-103060930D01*
X157534962Y-103108349D01*
X157451250Y-103125000D01*
X157013750Y-103125000D01*
X156930038Y-103108349D01*
X156859070Y-103060930D01*
X156811651Y-102989962D01*
X156795000Y-102906250D01*
X156795000Y-102393750D01*
X156811651Y-102310038D01*
X156859070Y-102239070D01*
X156930038Y-102191651D01*
X157013750Y-102175000D01*
X157451250Y-102175000D01*
X157534962Y-102191651D01*
X157534962Y-102191651D01*
G37*
D14*
X157232500Y-102650000D03*
D13*
G36*
X159109962Y-102191651D02*
G01*
X159180930Y-102239070D01*
X159228349Y-102310038D01*
X159245000Y-102393750D01*
X159245000Y-102906250D01*
X159228349Y-102989962D01*
X159180930Y-103060930D01*
X159109962Y-103108349D01*
X159026250Y-103125000D01*
X158588750Y-103125000D01*
X158505038Y-103108349D01*
X158434070Y-103060930D01*
X158386651Y-102989962D01*
X158370000Y-102906250D01*
X158370000Y-102393750D01*
X158386651Y-102310038D01*
X158434070Y-102239070D01*
X158505038Y-102191651D01*
X158588750Y-102175000D01*
X159026250Y-102175000D01*
X159109962Y-102191651D01*
X159109962Y-102191651D01*
G37*
D14*
X158807500Y-102650000D03*
D13*
G36*
X155189962Y-106841651D02*
G01*
X155260930Y-106889070D01*
X155308349Y-106960038D01*
X155325000Y-107043750D01*
X155325000Y-107556250D01*
X155308349Y-107639962D01*
X155260930Y-107710930D01*
X155189962Y-107758349D01*
X155106250Y-107775000D01*
X154668750Y-107775000D01*
X154585038Y-107758349D01*
X154514070Y-107710930D01*
X154466651Y-107639962D01*
X154450000Y-107556250D01*
X154450000Y-107043750D01*
X154466651Y-106960038D01*
X154514070Y-106889070D01*
X154585038Y-106841651D01*
X154668750Y-106825000D01*
X155106250Y-106825000D01*
X155189962Y-106841651D01*
X155189962Y-106841651D01*
G37*
D14*
X154887500Y-107300000D03*
D13*
G36*
X153614962Y-106841651D02*
G01*
X153685930Y-106889070D01*
X153733349Y-106960038D01*
X153750000Y-107043750D01*
X153750000Y-107556250D01*
X153733349Y-107639962D01*
X153685930Y-107710930D01*
X153614962Y-107758349D01*
X153531250Y-107775000D01*
X153093750Y-107775000D01*
X153010038Y-107758349D01*
X152939070Y-107710930D01*
X152891651Y-107639962D01*
X152875000Y-107556250D01*
X152875000Y-107043750D01*
X152891651Y-106960038D01*
X152939070Y-106889070D01*
X153010038Y-106841651D01*
X153093750Y-106825000D01*
X153531250Y-106825000D01*
X153614962Y-106841651D01*
X153614962Y-106841651D01*
G37*
D14*
X153312500Y-107300000D03*
D13*
G36*
X154314962Y-128491651D02*
G01*
X154385930Y-128539070D01*
X154433349Y-128610038D01*
X154450000Y-128693750D01*
X154450000Y-129206250D01*
X154433349Y-129289962D01*
X154385930Y-129360930D01*
X154314962Y-129408349D01*
X154231250Y-129425000D01*
X153793750Y-129425000D01*
X153710038Y-129408349D01*
X153639070Y-129360930D01*
X153591651Y-129289962D01*
X153575000Y-129206250D01*
X153575000Y-128693750D01*
X153591651Y-128610038D01*
X153639070Y-128539070D01*
X153710038Y-128491651D01*
X153793750Y-128475000D01*
X154231250Y-128475000D01*
X154314962Y-128491651D01*
X154314962Y-128491651D01*
G37*
D14*
X154012500Y-128950000D03*
D13*
G36*
X155889962Y-128491651D02*
G01*
X155960930Y-128539070D01*
X156008349Y-128610038D01*
X156025000Y-128693750D01*
X156025000Y-129206250D01*
X156008349Y-129289962D01*
X155960930Y-129360930D01*
X155889962Y-129408349D01*
X155806250Y-129425000D01*
X155368750Y-129425000D01*
X155285038Y-129408349D01*
X155214070Y-129360930D01*
X155166651Y-129289962D01*
X155150000Y-129206250D01*
X155150000Y-128693750D01*
X155166651Y-128610038D01*
X155214070Y-128539070D01*
X155285038Y-128491651D01*
X155368750Y-128475000D01*
X155806250Y-128475000D01*
X155889962Y-128491651D01*
X155889962Y-128491651D01*
G37*
D14*
X155587500Y-128950000D03*
D25*
X141100000Y-109400000D03*
X141100000Y-111300000D03*
X143300000Y-111300000D03*
X143300000Y-110350000D03*
X143300000Y-109400000D03*
D13*
G36*
X157534962Y-103691651D02*
G01*
X157605930Y-103739070D01*
X157653349Y-103810038D01*
X157670000Y-103893750D01*
X157670000Y-104406250D01*
X157653349Y-104489962D01*
X157605930Y-104560930D01*
X157534962Y-104608349D01*
X157451250Y-104625000D01*
X157013750Y-104625000D01*
X156930038Y-104608349D01*
X156859070Y-104560930D01*
X156811651Y-104489962D01*
X156795000Y-104406250D01*
X156795000Y-103893750D01*
X156811651Y-103810038D01*
X156859070Y-103739070D01*
X156930038Y-103691651D01*
X157013750Y-103675000D01*
X157451250Y-103675000D01*
X157534962Y-103691651D01*
X157534962Y-103691651D01*
G37*
D14*
X157232500Y-104150000D03*
D13*
G36*
X159109962Y-103691651D02*
G01*
X159180930Y-103739070D01*
X159228349Y-103810038D01*
X159245000Y-103893750D01*
X159245000Y-104406250D01*
X159228349Y-104489962D01*
X159180930Y-104560930D01*
X159109962Y-104608349D01*
X159026250Y-104625000D01*
X158588750Y-104625000D01*
X158505038Y-104608349D01*
X158434070Y-104560930D01*
X158386651Y-104489962D01*
X158370000Y-104406250D01*
X158370000Y-103893750D01*
X158386651Y-103810038D01*
X158434070Y-103739070D01*
X158505038Y-103691651D01*
X158588750Y-103675000D01*
X159026250Y-103675000D01*
X159109962Y-103691651D01*
X159109962Y-103691651D01*
G37*
D14*
X158807500Y-104150000D03*
D25*
X153400000Y-110550000D03*
X153400000Y-112450000D03*
X155600000Y-112450000D03*
X155600000Y-111500000D03*
X155600000Y-110550000D03*
D13*
G36*
X155189962Y-105341651D02*
G01*
X155260930Y-105389070D01*
X155308349Y-105460038D01*
X155325000Y-105543750D01*
X155325000Y-106056250D01*
X155308349Y-106139962D01*
X155260930Y-106210930D01*
X155189962Y-106258349D01*
X155106250Y-106275000D01*
X154668750Y-106275000D01*
X154585038Y-106258349D01*
X154514070Y-106210930D01*
X154466651Y-106139962D01*
X154450000Y-106056250D01*
X154450000Y-105543750D01*
X154466651Y-105460038D01*
X154514070Y-105389070D01*
X154585038Y-105341651D01*
X154668750Y-105325000D01*
X155106250Y-105325000D01*
X155189962Y-105341651D01*
X155189962Y-105341651D01*
G37*
D14*
X154887500Y-105800000D03*
D13*
G36*
X153614962Y-105341651D02*
G01*
X153685930Y-105389070D01*
X153733349Y-105460038D01*
X153750000Y-105543750D01*
X153750000Y-106056250D01*
X153733349Y-106139962D01*
X153685930Y-106210930D01*
X153614962Y-106258349D01*
X153531250Y-106275000D01*
X153093750Y-106275000D01*
X153010038Y-106258349D01*
X152939070Y-106210930D01*
X152891651Y-106139962D01*
X152875000Y-106056250D01*
X152875000Y-105543750D01*
X152891651Y-105460038D01*
X152939070Y-105389070D01*
X153010038Y-105341651D01*
X153093750Y-105325000D01*
X153531250Y-105325000D01*
X153614962Y-105341651D01*
X153614962Y-105341651D01*
G37*
D14*
X153312500Y-105800000D03*
D26*
X157450000Y-107750000D03*
X158750000Y-107750000D03*
X158100000Y-105850000D03*
X158100000Y-107750000D03*
X158750000Y-105850000D03*
X157450000Y-105850000D03*
D13*
G36*
X157534962Y-109341651D02*
G01*
X157605930Y-109389070D01*
X157653349Y-109460038D01*
X157670000Y-109543750D01*
X157670000Y-110056250D01*
X157653349Y-110139962D01*
X157605930Y-110210930D01*
X157534962Y-110258349D01*
X157451250Y-110275000D01*
X157013750Y-110275000D01*
X156930038Y-110258349D01*
X156859070Y-110210930D01*
X156811651Y-110139962D01*
X156795000Y-110056250D01*
X156795000Y-109543750D01*
X156811651Y-109460038D01*
X156859070Y-109389070D01*
X156930038Y-109341651D01*
X157013750Y-109325000D01*
X157451250Y-109325000D01*
X157534962Y-109341651D01*
X157534962Y-109341651D01*
G37*
D14*
X157232500Y-109800000D03*
D13*
G36*
X159109962Y-109341651D02*
G01*
X159180930Y-109389070D01*
X159228349Y-109460038D01*
X159245000Y-109543750D01*
X159245000Y-110056250D01*
X159228349Y-110139962D01*
X159180930Y-110210930D01*
X159109962Y-110258349D01*
X159026250Y-110275000D01*
X158588750Y-110275000D01*
X158505038Y-110258349D01*
X158434070Y-110210930D01*
X158386651Y-110139962D01*
X158370000Y-110056250D01*
X158370000Y-109543750D01*
X158386651Y-109460038D01*
X158434070Y-109389070D01*
X158505038Y-109341651D01*
X158588750Y-109325000D01*
X159026250Y-109325000D01*
X159109962Y-109341651D01*
X159109962Y-109341651D01*
G37*
D14*
X158807500Y-109800000D03*
D13*
G36*
X146789962Y-111541651D02*
G01*
X146860930Y-111589070D01*
X146908349Y-111660038D01*
X146925000Y-111743750D01*
X146925000Y-112256250D01*
X146908349Y-112339962D01*
X146860930Y-112410930D01*
X146789962Y-112458349D01*
X146706250Y-112475000D01*
X146268750Y-112475000D01*
X146185038Y-112458349D01*
X146114070Y-112410930D01*
X146066651Y-112339962D01*
X146050000Y-112256250D01*
X146050000Y-111743750D01*
X146066651Y-111660038D01*
X146114070Y-111589070D01*
X146185038Y-111541651D01*
X146268750Y-111525000D01*
X146706250Y-111525000D01*
X146789962Y-111541651D01*
X146789962Y-111541651D01*
G37*
D14*
X146487500Y-112000000D03*
D13*
G36*
X145214962Y-111541651D02*
G01*
X145285930Y-111589070D01*
X145333349Y-111660038D01*
X145350000Y-111743750D01*
X145350000Y-112256250D01*
X145333349Y-112339962D01*
X145285930Y-112410930D01*
X145214962Y-112458349D01*
X145131250Y-112475000D01*
X144693750Y-112475000D01*
X144610038Y-112458349D01*
X144539070Y-112410930D01*
X144491651Y-112339962D01*
X144475000Y-112256250D01*
X144475000Y-111743750D01*
X144491651Y-111660038D01*
X144539070Y-111589070D01*
X144610038Y-111541651D01*
X144693750Y-111525000D01*
X145131250Y-111525000D01*
X145214962Y-111541651D01*
X145214962Y-111541651D01*
G37*
D14*
X144912500Y-112000000D03*
D13*
G36*
X157534962Y-110841651D02*
G01*
X157605930Y-110889070D01*
X157653349Y-110960038D01*
X157670000Y-111043750D01*
X157670000Y-111556250D01*
X157653349Y-111639962D01*
X157605930Y-111710930D01*
X157534962Y-111758349D01*
X157451250Y-111775000D01*
X157013750Y-111775000D01*
X156930038Y-111758349D01*
X156859070Y-111710930D01*
X156811651Y-111639962D01*
X156795000Y-111556250D01*
X156795000Y-111043750D01*
X156811651Y-110960038D01*
X156859070Y-110889070D01*
X156930038Y-110841651D01*
X157013750Y-110825000D01*
X157451250Y-110825000D01*
X157534962Y-110841651D01*
X157534962Y-110841651D01*
G37*
D14*
X157232500Y-111300000D03*
D13*
G36*
X159109962Y-110841651D02*
G01*
X159180930Y-110889070D01*
X159228349Y-110960038D01*
X159245000Y-111043750D01*
X159245000Y-111556250D01*
X159228349Y-111639962D01*
X159180930Y-111710930D01*
X159109962Y-111758349D01*
X159026250Y-111775000D01*
X158588750Y-111775000D01*
X158505038Y-111758349D01*
X158434070Y-111710930D01*
X158386651Y-111639962D01*
X158370000Y-111556250D01*
X158370000Y-111043750D01*
X158386651Y-110960038D01*
X158434070Y-110889070D01*
X158505038Y-110841651D01*
X158588750Y-110825000D01*
X159026250Y-110825000D01*
X159109962Y-110841651D01*
X159109962Y-110841651D01*
G37*
D14*
X158807500Y-111300000D03*
D13*
G36*
X146789962Y-108541651D02*
G01*
X146860930Y-108589070D01*
X146908349Y-108660038D01*
X146925000Y-108743750D01*
X146925000Y-109256250D01*
X146908349Y-109339962D01*
X146860930Y-109410930D01*
X146789962Y-109458349D01*
X146706250Y-109475000D01*
X146268750Y-109475000D01*
X146185038Y-109458349D01*
X146114070Y-109410930D01*
X146066651Y-109339962D01*
X146050000Y-109256250D01*
X146050000Y-108743750D01*
X146066651Y-108660038D01*
X146114070Y-108589070D01*
X146185038Y-108541651D01*
X146268750Y-108525000D01*
X146706250Y-108525000D01*
X146789962Y-108541651D01*
X146789962Y-108541651D01*
G37*
D14*
X146487500Y-109000000D03*
D13*
G36*
X145214962Y-108541651D02*
G01*
X145285930Y-108589070D01*
X145333349Y-108660038D01*
X145350000Y-108743750D01*
X145350000Y-109256250D01*
X145333349Y-109339962D01*
X145285930Y-109410930D01*
X145214962Y-109458349D01*
X145131250Y-109475000D01*
X144693750Y-109475000D01*
X144610038Y-109458349D01*
X144539070Y-109410930D01*
X144491651Y-109339962D01*
X144475000Y-109256250D01*
X144475000Y-108743750D01*
X144491651Y-108660038D01*
X144539070Y-108589070D01*
X144610038Y-108541651D01*
X144693750Y-108525000D01*
X145131250Y-108525000D01*
X145214962Y-108541651D01*
X145214962Y-108541651D01*
G37*
D14*
X144912500Y-109000000D03*
D27*
X152300000Y-162945000D03*
D28*
X142900000Y-162945000D03*
X144900000Y-170345000D03*
D29*
X151300000Y-128800000D03*
D30*
X148760000Y-128800000D03*
D13*
G36*
X158789962Y-163141651D02*
G01*
X158860930Y-163189070D01*
X158908349Y-163260038D01*
X158925000Y-163343750D01*
X158925000Y-163781250D01*
X158908349Y-163864962D01*
X158860930Y-163935930D01*
X158789962Y-163983349D01*
X158706250Y-164000000D01*
X158193750Y-164000000D01*
X158110038Y-163983349D01*
X158039070Y-163935930D01*
X157991651Y-163864962D01*
X157975000Y-163781250D01*
X157975000Y-163343750D01*
X157991651Y-163260038D01*
X158039070Y-163189070D01*
X158110038Y-163141651D01*
X158193750Y-163125000D01*
X158706250Y-163125000D01*
X158789962Y-163141651D01*
X158789962Y-163141651D01*
G37*
D14*
X158450000Y-163562500D03*
D13*
G36*
X158789962Y-164716651D02*
G01*
X158860930Y-164764070D01*
X158908349Y-164835038D01*
X158925000Y-164918750D01*
X158925000Y-165356250D01*
X158908349Y-165439962D01*
X158860930Y-165510930D01*
X158789962Y-165558349D01*
X158706250Y-165575000D01*
X158193750Y-165575000D01*
X158110038Y-165558349D01*
X158039070Y-165510930D01*
X157991651Y-165439962D01*
X157975000Y-165356250D01*
X157975000Y-164918750D01*
X157991651Y-164835038D01*
X158039070Y-164764070D01*
X158110038Y-164716651D01*
X158193750Y-164700000D01*
X158706250Y-164700000D01*
X158789962Y-164716651D01*
X158789962Y-164716651D01*
G37*
D14*
X158450000Y-165137500D03*
D13*
G36*
X157239962Y-164716651D02*
G01*
X157310930Y-164764070D01*
X157358349Y-164835038D01*
X157375000Y-164918750D01*
X157375000Y-165356250D01*
X157358349Y-165439962D01*
X157310930Y-165510930D01*
X157239962Y-165558349D01*
X157156250Y-165575000D01*
X156643750Y-165575000D01*
X156560038Y-165558349D01*
X156489070Y-165510930D01*
X156441651Y-165439962D01*
X156425000Y-165356250D01*
X156425000Y-164918750D01*
X156441651Y-164835038D01*
X156489070Y-164764070D01*
X156560038Y-164716651D01*
X156643750Y-164700000D01*
X157156250Y-164700000D01*
X157239962Y-164716651D01*
X157239962Y-164716651D01*
G37*
D14*
X156900000Y-165137500D03*
D13*
G36*
X157239962Y-163141651D02*
G01*
X157310930Y-163189070D01*
X157358349Y-163260038D01*
X157375000Y-163343750D01*
X157375000Y-163781250D01*
X157358349Y-163864962D01*
X157310930Y-163935930D01*
X157239962Y-163983349D01*
X157156250Y-164000000D01*
X156643750Y-164000000D01*
X156560038Y-163983349D01*
X156489070Y-163935930D01*
X156441651Y-163864962D01*
X156425000Y-163781250D01*
X156425000Y-163343750D01*
X156441651Y-163260038D01*
X156489070Y-163189070D01*
X156560038Y-163141651D01*
X156643750Y-163125000D01*
X157156250Y-163125000D01*
X157239962Y-163141651D01*
X157239962Y-163141651D01*
G37*
D14*
X156900000Y-163562500D03*
D20*
X158800000Y-128700000D03*
D31*
X158890000Y-159855000D03*
X153810000Y-159855000D03*
X148730000Y-159855000D03*
X143650000Y-159855000D03*
X156350000Y-156545000D03*
X151270000Y-156545000D03*
X146190000Y-156545000D03*
X141110000Y-156545000D03*
D13*
G36*
X159099529Y-140593554D02*
G01*
X159178607Y-140646393D01*
X159231446Y-140725471D01*
X159250000Y-140818750D01*
X159250000Y-141306250D01*
X159231446Y-141399529D01*
X159178607Y-141478607D01*
X159099529Y-141531446D01*
X159006250Y-141550000D01*
X158093750Y-141550000D01*
X158000471Y-141531446D01*
X157921393Y-141478607D01*
X157868554Y-141399529D01*
X157850000Y-141306250D01*
X157850000Y-140818750D01*
X157868554Y-140725471D01*
X157921393Y-140646393D01*
X158000471Y-140593554D01*
X158093750Y-140575000D01*
X159006250Y-140575000D01*
X159099529Y-140593554D01*
X159099529Y-140593554D01*
G37*
D32*
X158550000Y-141062500D03*
D13*
G36*
X159099529Y-142468554D02*
G01*
X159178607Y-142521393D01*
X159231446Y-142600471D01*
X159250000Y-142693750D01*
X159250000Y-143181250D01*
X159231446Y-143274529D01*
X159178607Y-143353607D01*
X159099529Y-143406446D01*
X159006250Y-143425000D01*
X158093750Y-143425000D01*
X158000471Y-143406446D01*
X157921393Y-143353607D01*
X157868554Y-143274529D01*
X157850000Y-143181250D01*
X157850000Y-142693750D01*
X157868554Y-142600471D01*
X157921393Y-142521393D01*
X158000471Y-142468554D01*
X158093750Y-142450000D01*
X159006250Y-142450000D01*
X159099529Y-142468554D01*
X159099529Y-142468554D01*
G37*
D32*
X158550000Y-142937500D03*
D13*
G36*
X141999529Y-140593554D02*
G01*
X142078607Y-140646393D01*
X142131446Y-140725471D01*
X142150000Y-140818750D01*
X142150000Y-141306250D01*
X142131446Y-141399529D01*
X142078607Y-141478607D01*
X141999529Y-141531446D01*
X141906250Y-141550000D01*
X140993750Y-141550000D01*
X140900471Y-141531446D01*
X140821393Y-141478607D01*
X140768554Y-141399529D01*
X140750000Y-141306250D01*
X140750000Y-140818750D01*
X140768554Y-140725471D01*
X140821393Y-140646393D01*
X140900471Y-140593554D01*
X140993750Y-140575000D01*
X141906250Y-140575000D01*
X141999529Y-140593554D01*
X141999529Y-140593554D01*
G37*
D32*
X141450000Y-141062500D03*
D13*
G36*
X141999529Y-142468554D02*
G01*
X142078607Y-142521393D01*
X142131446Y-142600471D01*
X142150000Y-142693750D01*
X142150000Y-143181250D01*
X142131446Y-143274529D01*
X142078607Y-143353607D01*
X141999529Y-143406446D01*
X141906250Y-143425000D01*
X140993750Y-143425000D01*
X140900471Y-143406446D01*
X140821393Y-143353607D01*
X140768554Y-143274529D01*
X140750000Y-143181250D01*
X140750000Y-142693750D01*
X140768554Y-142600471D01*
X140821393Y-142521393D01*
X140900471Y-142468554D01*
X140993750Y-142450000D01*
X141906250Y-142450000D01*
X141999529Y-142468554D01*
X141999529Y-142468554D01*
G37*
D32*
X141450000Y-142937500D03*
D10*
X146860000Y-103800000D03*
X159000000Y-155200000D03*
X157800000Y-155200000D03*
X156190000Y-107440000D03*
X150060779Y-111859221D03*
X159420000Y-113950000D03*
X152600000Y-114800000D03*
X156200000Y-119000000D03*
X154810000Y-113640000D03*
X153920000Y-114600000D03*
X158580000Y-109180000D03*
X158530000Y-112280000D03*
X156290000Y-111640000D03*
X156270000Y-109630000D03*
X154130000Y-111390000D03*
X152720000Y-111760000D03*
X146620000Y-108020000D03*
X144300000Y-110360000D03*
X142070000Y-105950000D03*
X140550000Y-104715000D03*
X150250000Y-106460000D03*
X152099989Y-105749989D03*
X157390000Y-107190000D03*
X158724990Y-106500000D03*
X157930000Y-106590000D03*
X157580000Y-105010000D03*
X146415568Y-106096768D03*
X152400000Y-103000000D03*
X143584099Y-104334099D03*
X155375000Y-151025000D03*
X155350000Y-159750000D03*
X156200000Y-106200000D03*
X159500000Y-121500000D03*
X145510000Y-104500000D03*
X141140000Y-110400000D03*
X151100010Y-118101279D03*
X147800000Y-115400000D03*
X149650000Y-117850000D03*
X156300000Y-118200000D03*
X151430030Y-116900671D03*
X151300000Y-115400000D03*
X140900000Y-108700000D03*
X143750000Y-122250000D03*
X148600000Y-103100000D03*
X146300000Y-112600000D03*
X155700000Y-163400000D03*
X147100000Y-156400000D03*
X150000000Y-169600000D03*
X151350000Y-158300000D03*
X143300000Y-154100000D03*
X145700000Y-108300000D03*
X155700000Y-143800000D03*
D33*
X146387500Y-103800000D02*
X146860000Y-103800000D01*
X159000000Y-155200000D02*
X159000000Y-159745000D01*
X159000000Y-159745000D02*
X158890000Y-159855000D01*
X155700000Y-143800000D02*
X155700000Y-144365685D01*
X157100000Y-154500000D02*
X157800000Y-155200000D01*
X155700000Y-144365685D02*
X157100000Y-145765685D01*
X157100000Y-145765685D02*
X157100000Y-154500000D01*
X158241636Y-113541636D02*
X157950000Y-113250000D01*
X158743364Y-113826636D02*
X158458364Y-113541636D01*
X158458364Y-113541636D02*
X158241636Y-113541636D01*
X158743364Y-114323364D02*
X158743364Y-113826636D01*
X156190000Y-108570000D02*
X156190000Y-107440000D01*
X157950000Y-113250000D02*
X157950000Y-113150000D01*
X159639990Y-115219990D02*
X158743364Y-114323364D01*
X159500000Y-121500000D02*
X159500000Y-121181802D01*
X159500000Y-121181802D02*
X159650010Y-121031792D01*
X159650010Y-115219990D02*
X159639990Y-115219990D01*
X157945010Y-112341738D02*
X157950000Y-112336748D01*
X157625010Y-108925010D02*
X156545010Y-108925010D01*
X159650010Y-121031792D02*
X159650010Y-115219990D01*
X157950000Y-113150000D02*
X157945010Y-113145010D01*
X157945010Y-113145010D02*
X157945010Y-112341738D01*
X157950000Y-112336748D02*
X157950000Y-109250000D01*
X157950000Y-109250000D02*
X157625010Y-108925010D01*
X156545010Y-108925010D02*
X156190000Y-108570000D01*
X156800000Y-106180000D02*
X156800000Y-105810000D01*
X156800000Y-108300000D02*
X156800000Y-106180000D01*
X154887500Y-104300000D02*
X155325000Y-104300000D01*
X155325000Y-104300000D02*
X156800000Y-105775000D01*
X156800000Y-105775000D02*
X156800000Y-106180000D01*
X157075000Y-108575000D02*
X156800000Y-108300000D01*
X159274978Y-108575000D02*
X157075000Y-108575000D01*
X159662932Y-108962932D02*
X159662910Y-108962932D01*
X159662910Y-108962932D02*
X159274978Y-108575000D01*
X159420000Y-113525736D02*
X159662932Y-113282804D01*
X159662932Y-113282804D02*
X159662932Y-108962932D01*
X159420000Y-113950000D02*
X159420000Y-113525736D01*
X149280779Y-106860779D02*
X148750000Y-106330000D01*
X149832337Y-106860779D02*
X149280779Y-106860779D01*
X150060779Y-107089221D02*
X149832337Y-106860779D01*
X150060779Y-111859221D02*
X150060779Y-107089221D01*
X148750000Y-106330000D02*
X148750000Y-104750000D01*
X148865992Y-111480000D02*
X148865992Y-110730992D01*
X148865992Y-110730992D02*
X148735000Y-110600000D01*
X151100000Y-113500000D02*
X150885992Y-113500000D01*
X150885992Y-113500000D02*
X148865992Y-111480000D01*
X147609999Y-111619999D02*
X147609999Y-107084991D01*
X148131761Y-112141761D02*
X147609999Y-111619999D01*
X149875001Y-112983999D02*
X149032763Y-112141761D01*
X149032763Y-112141761D02*
X148131761Y-112141761D01*
X149875001Y-115075001D02*
X149875001Y-112983999D01*
X147609999Y-107084991D02*
X147824999Y-106869991D01*
X150380000Y-115580000D02*
X149875001Y-115075001D01*
X150380000Y-121070000D02*
X150380000Y-115580000D01*
X151550000Y-122240000D02*
X150380000Y-121070000D01*
X152525000Y-122240000D02*
X151550000Y-122240000D01*
X147824999Y-106869991D02*
X147824999Y-102249999D01*
X147824999Y-102249999D02*
X147500000Y-101925000D01*
X147500000Y-101925000D02*
X147500000Y-101100000D01*
X159300000Y-115570000D02*
X159300000Y-120370000D01*
X158272500Y-115060000D02*
X158790000Y-115060000D01*
X158790000Y-115060000D02*
X159300000Y-115570000D01*
X157987500Y-114300000D02*
X157987500Y-114775000D01*
X157987500Y-114775000D02*
X158272500Y-115060000D01*
X155570864Y-114629136D02*
X155570864Y-115070864D01*
X154810000Y-113868272D02*
X155570864Y-114629136D01*
X155570864Y-115070864D02*
X156390000Y-115890000D01*
X154810000Y-113640000D02*
X154810000Y-113868272D01*
X156390000Y-115890000D02*
X157725000Y-115890000D01*
X150540000Y-124400000D02*
X150295000Y-124645000D01*
X152600000Y-114800000D02*
X152599999Y-114375735D01*
X144105001Y-111955001D02*
X144042501Y-112017501D01*
X141301902Y-114758100D02*
X143755001Y-112305001D01*
X143755001Y-112305001D02*
X143905001Y-112155001D01*
X144300000Y-110360000D02*
X144300000Y-110400000D01*
X140475000Y-103475000D02*
X140475000Y-104155000D01*
X159300000Y-107030000D02*
X159300000Y-106340000D01*
X146796778Y-106596778D02*
X146896778Y-106496778D01*
X146896778Y-106496778D02*
X147000010Y-106393546D01*
X147100000Y-106293556D02*
X146996778Y-106396778D01*
X146996778Y-106396778D02*
X146896778Y-106496778D01*
X143900000Y-104018198D02*
X143584099Y-104334099D01*
X143318198Y-104600000D02*
X143584099Y-104334099D01*
X152300000Y-161395000D02*
X152300000Y-162945000D01*
X155375000Y-147075000D02*
X153450000Y-145150000D01*
X149362500Y-141062500D02*
X150400000Y-142100000D01*
X151274990Y-142074990D02*
X150425010Y-142074990D01*
X157537510Y-142074990D02*
X151274990Y-142074990D01*
X156300000Y-142787500D02*
X156300000Y-142975000D01*
X158400000Y-143575000D02*
X158400000Y-144100000D01*
X149262500Y-141062500D02*
X149362500Y-141062500D01*
X157900000Y-103300000D02*
X157750000Y-103450000D01*
X147800000Y-117800000D02*
X147800000Y-117300000D01*
X158250000Y-104850000D02*
X158100000Y-104700000D01*
X157232500Y-109800000D02*
X157232500Y-110275000D01*
X157232500Y-112325000D02*
X157232500Y-111300000D01*
X158450000Y-103250000D02*
X158000000Y-103700000D01*
X140475000Y-103110500D02*
X140475000Y-103475000D01*
X156550000Y-138600000D02*
X156550000Y-140962500D01*
X154825000Y-139650000D02*
X155575000Y-140400000D01*
X153915000Y-159750000D02*
X153810000Y-159855000D01*
X156550000Y-140962500D02*
X156300000Y-141212500D01*
X157390000Y-107690000D02*
X157450000Y-107750000D01*
X146487500Y-109000000D02*
X146400000Y-109000000D01*
X141293000Y-102730000D02*
X140855500Y-102730000D01*
X146287500Y-103700000D02*
X146287500Y-103987500D01*
X158000000Y-135000000D02*
X157500000Y-134500000D01*
X144712500Y-110500000D02*
X144800000Y-110500000D01*
X153400000Y-112450000D02*
X153400000Y-112440000D01*
X156300000Y-141212500D02*
X156300000Y-141125000D01*
X151740000Y-104300000D02*
X151290000Y-104750000D01*
X158807500Y-101150000D02*
X158370000Y-101150000D01*
X142868000Y-100850000D02*
X142868000Y-101325000D01*
X145150000Y-109000000D02*
X144712500Y-109000000D01*
X145250000Y-100850000D02*
X145500000Y-101100000D01*
X158724990Y-105924990D02*
X158700000Y-105900000D01*
X157232500Y-112800000D02*
X157232500Y-112325000D01*
X142092500Y-142937500D02*
X141450000Y-142937500D01*
X158530000Y-112522500D02*
X158807500Y-112800000D01*
X157312500Y-104150000D02*
X157312500Y-103675000D01*
X145370000Y-101230000D02*
X145500000Y-101100000D01*
X157312500Y-104619621D02*
X157312500Y-104452894D01*
X152124999Y-112425001D02*
X152599999Y-112900001D01*
X152599999Y-114800000D02*
X152600000Y-112900001D01*
X152124999Y-111449999D02*
X152124999Y-112425001D01*
X151275000Y-110600000D02*
X152124999Y-111449999D01*
X156200000Y-119000000D02*
X156900000Y-119700000D01*
X140475000Y-103110500D02*
X140475000Y-103475000D01*
X158000000Y-104600000D02*
X158250000Y-104850000D01*
X158400000Y-144100000D02*
X158400000Y-143537500D01*
X153750000Y-124400000D02*
X150540000Y-124400000D01*
X154500000Y-123650000D02*
X153750000Y-124400000D01*
X150295000Y-124645000D02*
X148740000Y-126200000D01*
X155100000Y-119200000D02*
X154500000Y-119800000D01*
X155100000Y-114900000D02*
X155100000Y-119200000D01*
X153870000Y-113670000D02*
X155100000Y-114900000D01*
X154362529Y-111515082D02*
X154362529Y-112847471D01*
X154362529Y-112847471D02*
X153870000Y-113340000D01*
X153870000Y-113340000D02*
X153870000Y-113670000D01*
X154500000Y-119800000D02*
X154500000Y-123650000D01*
X154130000Y-111390000D02*
X154362529Y-111515082D01*
X153920000Y-114600000D02*
X154500000Y-115100000D01*
X154500000Y-115100000D02*
X154500000Y-118700000D01*
X154500000Y-118700000D02*
X153500000Y-119700000D01*
X153190000Y-114420000D02*
X153190000Y-114980000D01*
X154050000Y-118130000D02*
X153750000Y-118430000D01*
X153400000Y-114210000D02*
X153190000Y-114420000D01*
X153400000Y-112450000D02*
X153400000Y-114210000D01*
X153190000Y-114980000D02*
X153460000Y-115250000D01*
X153460000Y-115250000D02*
X153950000Y-115250000D01*
X153950000Y-115250000D02*
X154050000Y-115350000D01*
X154050000Y-115350000D02*
X154050000Y-118130000D01*
X153750000Y-118430000D02*
X152775000Y-118430000D01*
X158580000Y-109180000D02*
X158544343Y-109456843D01*
X158530000Y-112280000D02*
X158530000Y-112522500D01*
X156290000Y-111640000D02*
X155948407Y-111748407D01*
X156270000Y-109630000D02*
X155242500Y-109630000D01*
X155242500Y-109630000D02*
X154887500Y-109275000D01*
X154887500Y-109275000D02*
X154887500Y-108800000D01*
X153400000Y-112440000D02*
X152720000Y-111760000D01*
X146287500Y-107787500D02*
X146620000Y-108020000D01*
X144042501Y-112017501D02*
X143755001Y-112305001D01*
X144105001Y-111494999D02*
X144105001Y-111955001D01*
X144300000Y-110400000D02*
X144250000Y-110350000D01*
X144300000Y-110360000D02*
X144300000Y-111300000D01*
X144300000Y-111300000D02*
X144105001Y-111494999D01*
X141975000Y-107400000D02*
X141975000Y-106045000D01*
X141975000Y-106045000D02*
X142070000Y-105950000D01*
X140475000Y-104640000D02*
X140550000Y-104715000D01*
X140475000Y-104155000D02*
X140475000Y-104640000D01*
X150250000Y-106460000D02*
X150020000Y-106057456D01*
X150020000Y-106057456D02*
X150020000Y-103480000D01*
X152400000Y-110130000D02*
X152400000Y-106050000D01*
X152820000Y-110550000D02*
X152400000Y-110130000D01*
X153500000Y-110550000D02*
X152820000Y-110550000D01*
X152400000Y-106050000D02*
X152099989Y-105749989D01*
X157390000Y-107190000D02*
X157390000Y-107690000D01*
X158887500Y-104150000D02*
X159325000Y-104150000D01*
X159325000Y-104150000D02*
X159650011Y-104475011D01*
X159100000Y-107750000D02*
X158750000Y-107750000D01*
X159650011Y-104475011D02*
X159650011Y-107199989D01*
X159650011Y-107199989D02*
X159100000Y-107750000D01*
X158724990Y-106500000D02*
X158724990Y-105924990D01*
X158400000Y-105000000D02*
X158250000Y-104850000D01*
X159300000Y-105300000D02*
X159000000Y-105000000D01*
X159300000Y-106775994D02*
X159300000Y-105300000D01*
X159000000Y-105000000D02*
X158400000Y-105000000D01*
X159210000Y-107120000D02*
X159300000Y-107030000D01*
X158255000Y-107120000D02*
X159210000Y-107120000D01*
X158100000Y-107275000D02*
X158255000Y-107120000D01*
X158100000Y-105850000D02*
X157930000Y-106590000D01*
X157560509Y-104867630D02*
X157312500Y-104619621D01*
X157580000Y-105010000D02*
X157560509Y-104867630D01*
X146287500Y-105968700D02*
X146287500Y-105300000D01*
X146415568Y-106096768D02*
X146287500Y-105968700D01*
X146693556Y-106700000D02*
X146996778Y-106396778D01*
X146000000Y-106700000D02*
X146693556Y-106700000D01*
X145700000Y-108300000D02*
X145700000Y-107000000D01*
X145700000Y-107000000D02*
X146000000Y-106700000D01*
X152400000Y-103000000D02*
X152500000Y-102900000D01*
X152500000Y-102900000D02*
X153312500Y-102900000D01*
X144712500Y-103700000D02*
X144218198Y-103700000D01*
X144218198Y-103700000D02*
X143584099Y-104334099D01*
X141975000Y-104600000D02*
X143318198Y-104600000D01*
X148730000Y-159855000D02*
X149380000Y-159855000D01*
X149380000Y-159855000D02*
X149635000Y-159600000D01*
X155525000Y-158675000D02*
X157225000Y-158675000D01*
X149635000Y-159600000D02*
X151350000Y-159600000D01*
X157225000Y-158675000D02*
X158400000Y-157500000D01*
X151350000Y-159600000D02*
X153300000Y-157650000D01*
X158400000Y-157500000D02*
X158400000Y-144100000D01*
X153300000Y-157650000D02*
X154500000Y-157650000D01*
X154500000Y-157650000D02*
X155525000Y-158675000D01*
X153810000Y-159855000D02*
X153160000Y-159855000D01*
X153160000Y-159855000D02*
X152300000Y-160715000D01*
X152300000Y-160715000D02*
X152300000Y-161395000D01*
X155350000Y-159750000D02*
X153915000Y-159750000D01*
X150400000Y-142100000D02*
X153450000Y-145150000D01*
X155375000Y-151025000D02*
X155375000Y-147075000D01*
X156350000Y-156545000D02*
X155700000Y-156545000D01*
X155700000Y-156545000D02*
X142092500Y-142937500D01*
X148814583Y-120375000D02*
X147930700Y-120375000D01*
X147930700Y-120375000D02*
X144402850Y-123902850D01*
X144402850Y-123902850D02*
X142417150Y-123902850D01*
X142417150Y-123902850D02*
X141120000Y-125200000D01*
X144712500Y-115597917D02*
X143185417Y-117125000D01*
X155450011Y-122099989D02*
X155250000Y-122300000D01*
X155450011Y-118209989D02*
X155450011Y-122099989D01*
X155250000Y-124150000D02*
X154499990Y-124900010D01*
X156500000Y-117160000D02*
X155450011Y-118209989D01*
X157475000Y-117160000D02*
X156500000Y-117160000D01*
X155250000Y-122300000D02*
X155250000Y-124150000D01*
X154499990Y-124900010D02*
X152579989Y-124900011D01*
X152579989Y-124900011D02*
X151280000Y-126200000D01*
X151274990Y-142074990D02*
X151174990Y-142074990D01*
X150425010Y-142074990D02*
X150400000Y-142100000D01*
X156300000Y-142787500D02*
X156300000Y-143765685D01*
X156300000Y-143765685D02*
X156265685Y-143800000D01*
X156265685Y-143800000D02*
X155700000Y-143800000D01*
X158550000Y-142937500D02*
X158550000Y-143425000D01*
X158550000Y-143425000D02*
X158400000Y-143575000D01*
X158468750Y-143468750D02*
X159000000Y-142937500D01*
X158400000Y-143537500D02*
X158468750Y-143468750D01*
X158550000Y-141062500D02*
X157537510Y-142074990D01*
X149262500Y-141062500D02*
X141450000Y-141062500D01*
X148260000Y-121600000D02*
X149300000Y-121600000D01*
X143660000Y-126200000D02*
X148260000Y-121600000D01*
X141120000Y-125200000D02*
X141120000Y-126200000D01*
X155850000Y-124850000D02*
X155100000Y-125600000D01*
X157312500Y-101150000D02*
X157312500Y-102650000D01*
X151275000Y-108060000D02*
X151275000Y-110600000D01*
X147550000Y-101100000D02*
X148250010Y-100399990D01*
X148735000Y-108060000D02*
X148735000Y-110600000D01*
X145150000Y-102800000D02*
X145510000Y-103160000D01*
X150787500Y-101200000D02*
X150787500Y-101675000D01*
X154900000Y-101150000D02*
X157312500Y-101150000D01*
X148250010Y-100399990D02*
X151700010Y-100399990D01*
X152400020Y-101100000D02*
X151700010Y-100399990D01*
X154812500Y-107300000D02*
X153312500Y-108800000D01*
X153312500Y-105800000D02*
X153312500Y-107300000D01*
X155020000Y-110550000D02*
X153312500Y-108842500D01*
X153312500Y-104300000D02*
X153312500Y-105800000D01*
X143100000Y-110350000D02*
X144150000Y-110350000D01*
X147100000Y-104800000D02*
X147100000Y-106293556D01*
X141301902Y-118901902D02*
X141850000Y-119450000D01*
X145510000Y-106227500D02*
X144712500Y-107025000D01*
X145510000Y-104500000D02*
X145510000Y-106227500D01*
X144712500Y-105775000D02*
X144712500Y-105300000D01*
X143564999Y-106922501D02*
X144712500Y-105775000D01*
X143564999Y-107584999D02*
X143564999Y-106922501D01*
X142100000Y-109049998D02*
X143564999Y-107584999D01*
X142100000Y-110980000D02*
X142100000Y-109049998D01*
X142420000Y-111300000D02*
X142100000Y-110980000D01*
X143100000Y-111300000D02*
X142420000Y-111300000D01*
X158000000Y-103200000D02*
X157900000Y-103300000D01*
D34*
X141140000Y-110400000D02*
X141140000Y-111060000D01*
D33*
X145700000Y-113300000D02*
X145700000Y-109350000D01*
X142275000Y-103575000D02*
X143300000Y-103575000D01*
X143750000Y-122250000D02*
X143100000Y-122250000D01*
X150800000Y-102420000D02*
X151290000Y-102910000D01*
X144025000Y-109400000D02*
X143300000Y-109400000D01*
X152525000Y-120970000D02*
X151251812Y-120970000D01*
X151100010Y-120818198D02*
X151100010Y-118101279D01*
X151251812Y-120970000D02*
X151100010Y-120818198D01*
X157537500Y-103450000D02*
X157750000Y-103450000D01*
X148625000Y-122900000D02*
X148625000Y-123775000D01*
X150787500Y-101675000D02*
X150800000Y-101687500D01*
X144712500Y-112000000D02*
X144712500Y-115597917D01*
X149300000Y-121600000D02*
X149800000Y-121100000D01*
X147800000Y-117300000D02*
X147800000Y-115400000D01*
X150200000Y-122900000D02*
X150637500Y-122900000D01*
X156530000Y-118430000D02*
X157725000Y-118430000D01*
X156300000Y-118200000D02*
X156530000Y-118430000D01*
X158807500Y-109800000D02*
X158807500Y-111300000D01*
X144075000Y-102800000D02*
X145150000Y-102800000D01*
X158000000Y-103700000D02*
X158000000Y-104600000D01*
X158887500Y-103125000D02*
X158812500Y-103200000D01*
X158887500Y-102650000D02*
X158887500Y-103125000D01*
X158370000Y-101150000D02*
X158000000Y-101520000D01*
X147450010Y-103050010D02*
X145500000Y-101100000D01*
X149650000Y-117850000D02*
X149200000Y-117400000D01*
X149200000Y-117400000D02*
X149200000Y-115800000D01*
X149200000Y-115800000D02*
X147259988Y-113859988D01*
X147259988Y-113859988D02*
X147259988Y-106628556D01*
X147450010Y-106438534D02*
X147450010Y-103050010D01*
X158100000Y-107750000D02*
X158100000Y-107275000D01*
X150800000Y-101687500D02*
X150800000Y-102420000D01*
X150637500Y-122900000D02*
X151247500Y-123510000D01*
X141301902Y-114758100D02*
X141301902Y-118901902D01*
X157232500Y-110275000D02*
X157232500Y-111300000D01*
X151660000Y-117160000D02*
X152775000Y-117160000D01*
X145350000Y-109000000D02*
X144912500Y-109000000D01*
X145700000Y-109350000D02*
X145350000Y-109000000D01*
X153312500Y-104300000D02*
X151740000Y-104300000D01*
X148625000Y-123775000D02*
X146200000Y-126200000D01*
X146287500Y-103987500D02*
X147100000Y-104800000D01*
X151247500Y-123510000D02*
X152775000Y-123510000D01*
X147800000Y-115400000D02*
X145700000Y-113300000D01*
X149800000Y-121100000D02*
X149800000Y-119800000D01*
X144150000Y-110350000D02*
X144250000Y-110350000D01*
X159300000Y-120370000D02*
X158700000Y-120970000D01*
X157312500Y-103675000D02*
X157537500Y-103450000D01*
X142075000Y-101574500D02*
X142075000Y-103375000D01*
X141730500Y-101230000D02*
X142075000Y-101574500D01*
X141293000Y-101230000D02*
X141730500Y-101230000D01*
X144250000Y-110350000D02*
X144562500Y-110350000D01*
X158700000Y-120970000D02*
X157725000Y-120970000D01*
X147259988Y-106628556D02*
X147450010Y-106438534D01*
X154012500Y-128950000D02*
X151450000Y-128950000D01*
X155100000Y-127900000D02*
X155587500Y-128387500D01*
X155100000Y-125600000D02*
X155100000Y-127900000D01*
X155587500Y-128387500D02*
X155587500Y-128950000D01*
X155020000Y-110550000D02*
X155700000Y-110550000D01*
X158900000Y-126200000D02*
X158900000Y-128600000D01*
X158900000Y-124935000D02*
X158900000Y-126200000D01*
X157475000Y-123510000D02*
X158900000Y-124935000D01*
X157475000Y-122240000D02*
X156160000Y-122240000D01*
X152035000Y-115400000D02*
X152525000Y-115890000D01*
X151300000Y-115400000D02*
X152035000Y-115400000D01*
X142868000Y-101230000D02*
X145370000Y-101230000D01*
X151430030Y-116930030D02*
X151660000Y-117160000D01*
X140900000Y-109400000D02*
X140900000Y-108700000D01*
X145510000Y-103160000D02*
X145510000Y-104500000D01*
X142075000Y-103375000D02*
X142275000Y-103575000D01*
X143300000Y-103575000D02*
X144075000Y-102800000D01*
X158450000Y-103250000D02*
X158100000Y-103600000D01*
X151290000Y-102910000D02*
X151290000Y-104750000D01*
X158812500Y-103200000D02*
X158500000Y-103200000D01*
X144425000Y-109000000D02*
X144025000Y-109400000D01*
X142868000Y-101325000D02*
X142868000Y-102350000D01*
X158000000Y-101520000D02*
X158000000Y-103200000D01*
X146287500Y-109000000D02*
X146287500Y-110500000D01*
X155600010Y-106075010D02*
X155600010Y-108524990D01*
X155325000Y-108800000D02*
X154887500Y-108800000D01*
X155600010Y-108524990D02*
X155325000Y-108800000D01*
X155325000Y-105800000D02*
X155600010Y-106075010D01*
X154887500Y-105800000D02*
X155325000Y-105800000D01*
X151430030Y-116900671D02*
X151430030Y-116930030D01*
X141850000Y-119450000D02*
X142600000Y-119450000D01*
X158500000Y-103200000D02*
X158450000Y-103250000D01*
X149800000Y-119800000D02*
X147800000Y-117800000D01*
X140855500Y-102730000D02*
X140475000Y-103110500D01*
X143100000Y-122250000D02*
X142600000Y-122750000D01*
X144912500Y-109000000D02*
X144425000Y-109000000D01*
X149212500Y-102487500D02*
X149212500Y-101200000D01*
X148600000Y-103100000D02*
X149212500Y-102487500D01*
X157450000Y-105725000D02*
X156400000Y-104675000D01*
X156400000Y-104675000D02*
X156400000Y-103525000D01*
X155675000Y-102800000D02*
X156400000Y-103525000D01*
X154887500Y-102800000D02*
X155675000Y-102800000D01*
X146287500Y-112587500D02*
X146300000Y-112600000D01*
X146287500Y-112000000D02*
X146287500Y-112587500D01*
X155700000Y-112450000D02*
X156465396Y-112450000D01*
X157312500Y-111602896D02*
X156465396Y-112450000D01*
X144712500Y-108525000D02*
X144712500Y-107500000D01*
X155850000Y-122550000D02*
X155850000Y-124850000D01*
X156160000Y-122240000D02*
X155850000Y-122550000D01*
X149300000Y-168400000D02*
X147500000Y-170200000D01*
X144900000Y-170200000D02*
X147500000Y-170200000D01*
X149300000Y-168400000D02*
X152500000Y-168400000D01*
X152500000Y-168400000D02*
X155762500Y-165137500D01*
X155762500Y-165137500D02*
X156900000Y-165137500D01*
D34*
X147100000Y-156400000D02*
X146190000Y-156400000D01*
X157500000Y-169500000D02*
X150100000Y-169500000D01*
X150100000Y-169500000D02*
X150000000Y-169600000D01*
D33*
X154000000Y-164950000D02*
X150750000Y-164950000D01*
X150750000Y-164950000D02*
X148600000Y-162800000D01*
X142900000Y-162800000D02*
X148600000Y-162800000D01*
X154600000Y-164350000D02*
X154000000Y-164950000D01*
X158100000Y-164350000D02*
X154600000Y-164350000D01*
X158450000Y-163562500D02*
X158450000Y-164000000D01*
X158450000Y-164000000D02*
X158100000Y-164350000D01*
X156900000Y-165137500D02*
X158450000Y-165137500D01*
X155700000Y-163400000D02*
X156737500Y-163400000D01*
X142900000Y-162800000D02*
X142900000Y-160460000D01*
X142900000Y-160460000D02*
X143402506Y-159957494D01*
X151350000Y-158300000D02*
X151350000Y-156480000D01*
X156550000Y-139350000D02*
X156550000Y-138600000D01*
X158000000Y-138600000D02*
X158000000Y-135000000D01*
D34*
X143300000Y-154210000D02*
X141110000Y-156400000D01*
X143300000Y-154100000D02*
X143300000Y-154210000D01*
D33*
X156300000Y-141125000D02*
X155575000Y-140400000D01*
X155457446Y-113782446D02*
X155975000Y-114300000D01*
X155185142Y-113050001D02*
X155457446Y-113322305D01*
X155020000Y-110550000D02*
X154712539Y-110857461D01*
X154800001Y-113050001D02*
X155185142Y-113050001D01*
X154712539Y-110857461D02*
X154712539Y-112962539D01*
X155457446Y-113322305D02*
X155457446Y-113782446D01*
X154712539Y-112962539D02*
X154800001Y-113050001D01*
X146287500Y-108937520D02*
X145700000Y-108300000D01*
X146400000Y-109000000D02*
X145700000Y-108300000D01*
X147600000Y-139650000D02*
X154825000Y-139650000D01*
M02*
