M48
; DRILL file {KiCad 5.99.0-unknown-c3175b4~86~ubuntu16.04.1} date Mon 09 Dec 2019 10:27:31 AM PST
; FORMAT={-:-/ absolute / metric / decimal}
; #@! TF.CreationDate,2019-12-09T10:27:31-08:00
; #@! TF.GenerationSoftware,Kicad,Pcbnew,5.99.0-unknown-c3175b4~86~ubuntu16.04.1
; #@! TF.FileFunction,Plated,1,2,PTH
FMAT,2
METRIC
T1C0.300
T2C0.650
T3C0.750
T4C0.800
T5C0.900
T6C1.000
T7C3.500
%
G90
G05
T1
X140.55Y-104.715
X140.9Y-108.7
X141.14Y-110.4
X142.07Y-105.95
X143.3Y-154.1
X143.584Y-104.334
X143.75Y-122.25
X144.3Y-110.36
X145.51Y-104.5
X145.7Y-108.3
X146.3Y-112.6
X146.416Y-106.097
X146.62Y-108.02
X146.86Y-103.8
X147.1Y-156.4
X147.8Y-115.4
X148.6Y-103.1
X149.65Y-117.85
X150.0Y-169.6
X150.061Y-111.859
X150.25Y-106.46
X151.1Y-118.101
X151.3Y-115.4
X151.35Y-158.3
X151.43Y-116.901
X152.1Y-105.75
X152.4Y-103.0
X152.6Y-114.8
X152.72Y-111.76
X153.92Y-114.6
X154.13Y-111.39
X154.81Y-113.64
X155.35Y-159.75
X155.375Y-151.025
X155.7Y-143.8
X155.7Y-163.4
X156.19Y-107.44
X156.2Y-106.2
X156.2Y-119.0
X156.27Y-109.63
X156.29Y-111.64
X156.3Y-118.2
X157.39Y-107.19
X157.58Y-105.01
X157.8Y-155.2
X157.93Y-106.59
X158.53Y-112.28
X158.58Y-109.18
X158.725Y-106.5
X159.0Y-155.2
X159.42Y-113.95
X159.5Y-121.5
X147.45Y-139.65
T2
X143.185Y-117.125
X148.815Y-120.375
T3
X148.75Y-104.75
X150.02Y-103.48
X151.29Y-104.75
T4
X148.8Y-113.5
X151.1Y-113.5
X145.5Y-101.1
X147.5Y-101.1
X152.5Y-101.1
X154.5Y-101.1
T5
X148.76Y-128.8
X151.3Y-128.8
T6
X141.12Y-126.2
X143.66Y-126.2
X146.2Y-126.2
X148.74Y-126.2
X151.28Y-126.2
X153.82Y-126.2
X156.36Y-126.2
X158.9Y-126.2
X148.735Y-108.06
X148.735Y-110.6
X151.275Y-108.06
X151.275Y-110.6
X158.8Y-128.7
T7
X157.5Y-134.5
X157.5Y-169.5
T0
M30
